<svg width="20" height="20" viewBox="0 0 20 20" fill="none" xmlns="http://www.w3.org/2000/svg">
<path fill-rule="evenodd" clip-rule="evenodd" d="M19.2321 13.8452C19.2321 18.092 15.3854 19.9999 9.99998 19.9999C4.61455 19.9999 0.767822 18.092 0.767822 13.876C0.767822 9.25988 3.07586 6.92091 7.69194 4.58209L6.05726 1.539C5.95976 1.38649 5.90548 1.21038 5.9002 1.02944C5.89492 0.848506 5.93884 0.66953 6.02729 0.511596C6.11573 0.353661 6.24538 0.22269 6.4024 0.132647C6.55943 0.0426031 6.73795 -0.00313718 6.91893 0.000302734H13.443C13.6127 0.00461599 13.7784 0.0520354 13.9247 0.138097C14.071 0.224158 14.193 0.346031 14.2792 0.492241C14.3654 0.638451 14.4129 0.80419 14.4174 0.973853C14.4218 1.14352 14.383 1.31153 14.3047 1.46206L12.308 4.58209C16.9241 6.89013 19.2321 9.22911 19.2321 13.8452ZM10.5357 6.98202C10.5357 6.68616 10.2958 6.44631 9.99995 6.44631C9.70409 6.44631 9.46424 6.68616 9.46424 6.98202V8.23202H9.21304C8.03684 8.23202 7.08335 9.18551 7.08335 10.3617C7.08335 11.3625 7.78022 12.2283 8.75793 12.4422L10.8623 12.9025C11.436 13.028 11.8452 13.5366 11.8452 14.1242C11.8452 14.8148 11.2853 15.3748 10.5952 15.3748H9.40476C8.86135 15.3748 8.39761 15.0278 8.22576 14.5416C8.12717 14.2626 7.8211 14.1164 7.54214 14.215C7.26319 14.3136 7.11698 14.6196 7.21558 14.8986C7.534 15.7995 8.39317 16.4463 9.40476 16.4463H9.46424V17.6963C9.46424 17.9922 9.70409 18.232 9.99995 18.232C10.2958 18.232 10.5357 17.9922 10.5357 17.6963V16.4463H10.5952C11.8776 16.4463 12.9166 15.406 12.9166 14.1242C12.9166 13.0335 12.1572 12.089 11.0913 11.8559L8.98689 11.3955C8.50106 11.2893 8.15477 10.859 8.15477 10.3617C8.15477 9.77725 8.62857 9.30345 9.21304 9.30345H10.5952C10.9654 9.30345 11.2974 9.46366 11.5271 9.72024C11.635 9.84084 11.7196 9.98204 11.7742 10.1367C11.8728 10.4157 12.1789 10.5619 12.4578 10.4633C12.7368 10.3647 12.883 10.0586 12.7844 9.77968C12.6823 9.49078 12.5249 9.22861 12.3254 9.00569C11.9011 8.53163 11.2828 8.23202 10.5952 8.23202H10.5357V6.98202Z" fill="#7A5AF8"/>
</svg>
