<svg width="19" height="19" viewBox="0 0 19 19" fill="none" xmlns="http://www.w3.org/2000/svg">
<path d="M7.3958 17.0769C7.50026 17.1744 7.73042 17.2605 8.0506 17.3219C8.37078 17.3833 8.76309 17.4166 9.16667 17.4166C9.57025 17.4166 9.96255 17.3833 10.2827 17.3219C10.6029 17.2605 10.8331 17.1744 10.9375 17.0769" stroke="#687287" stroke-width="2" stroke-linecap="round"/>
<path d="M4.12727 4.56059C4.38617 1.97159 6.56476 0 9.16667 0V0C11.7686 0 13.9472 1.97159 14.2061 4.56059L14.4688 7.18788C14.5987 8.48721 15.0454 9.73482 15.7698 10.8213L16.5591 12.0054C17.2004 12.9673 17.5211 13.4483 17.4486 13.846C17.4111 14.0517 17.3101 14.2405 17.1597 14.3858C16.869 14.6667 16.291 14.6667 15.1349 14.6667H3.19846C2.04235 14.6667 1.4643 14.6667 1.17362 14.3858C1.02325 14.2405 0.922215 14.0517 0.884723 13.846C0.812246 13.4483 1.13289 12.9673 1.77419 12.0054L2.56356 10.8213C3.2879 9.73482 3.73461 8.48721 3.86454 7.18788L4.12727 4.56059Z" fill="#687287"/>
</svg>
