<svg width="16" height="15" viewBox="0 0 16 15" fill="none" xmlns="http://www.w3.org/2000/svg">
<path fill-rule="evenodd" clip-rule="evenodd" d="M9.14286 3.42857C9.14286 5.32212 7.60783 6.85714 5.71429 6.85714C3.82074 6.85714 2.28571 5.32212 2.28571 3.42857C2.28571 1.53502 3.82074 0 5.71429 0C7.60783 0 9.14286 1.53502 9.14286 3.42857ZM5.71429 7.99996C2.55837 7.99996 0 10.5583 0 13.7142C0 14.0298 0.255837 14.2857 0.571429 14.2857H10.8571C11.1727 14.2857 11.4286 14.0298 11.4286 13.7142C11.4286 10.5583 8.8702 7.99996 5.71429 7.99996ZM15.4287 14.2857H12.7744C12.8283 14.1046 12.8572 13.9128 12.8572 13.7143C12.8572 11.3816 11.7391 9.31011 10.0095 8.00653C10.1011 8.00217 10.1932 7.99997 10.2858 7.99997C13.4417 7.99997 16.0001 10.5583 16.0001 13.7143C16.0001 14.0298 15.7443 14.2857 15.4287 14.2857ZM10.2858 6.85714C9.94097 6.85714 9.60803 6.80624 9.29408 6.71153C10.0873 5.84703 10.5715 4.69434 10.5715 3.42857C10.5715 2.1628 10.0873 1.01011 9.29408 0.145615C9.60803 0.0509069 9.94097 0 10.2858 0C12.1793 0 13.7144 1.53502 13.7144 3.42857C13.7144 5.32212 12.1793 6.85714 10.2858 6.85714Z" fill="#5D697A"/>
</svg>
