<svg width="16" height="16" viewBox="0 0 16 16" fill="none" xmlns="http://www.w3.org/2000/svg">
<path fill-rule="evenodd" clip-rule="evenodd" d="M6.85714 3.42857C6.85714 5.32212 5.32212 6.85714 3.42857 6.85714C1.53502 6.85714 0 5.32212 0 3.42857C0 1.53502 1.53502 0 3.42857 0C5.32212 0 6.85714 1.53502 6.85714 3.42857ZM16 3.42857C16 5.32212 14.465 6.85714 12.5714 6.85714C10.6779 6.85714 9.14286 5.32212 9.14286 3.42857C9.14286 1.53502 10.6779 0 12.5714 0C14.465 0 16 1.53502 16 3.42857ZM3.42857 16C5.32212 16 6.85714 14.465 6.85714 12.5714C6.85714 10.6779 5.32212 9.14286 3.42857 9.14286C1.53502 9.14286 0 10.6779 0 12.5714C0 14.465 1.53502 16 3.42857 16ZM16 12.5714C16 14.465 14.465 16 12.5714 16C10.6779 16 9.14286 14.465 9.14286 12.5714C9.14286 10.6779 10.6779 9.14286 12.5714 9.14286C14.465 9.14286 16 10.6779 16 12.5714Z" fill="#007AFF"/>
</svg>
