<svg width="13" height="14" viewBox="0 0 13 14" fill="none" xmlns="http://www.w3.org/2000/svg">
<path d="M9.375 1.875L9.375 3.75" stroke="#5D697A" stroke-width="2" stroke-linecap="round"/>
<path d="M3.125 1.875L3.125 3.75" stroke="#5D697A" stroke-width="2" stroke-linecap="round"/>
<path fill-rule="evenodd" clip-rule="evenodd" d="M0 9.75C0 11.6356 0 12.5784 0.585786 13.1642C1.17157 13.75 2.11438 13.75 4 13.75H8.5C10.3856 13.75 11.3284 13.75 11.9142 13.1642C12.5 12.5784 12.5 11.6356 12.5 9.75V8.5C12.5 8.0286 12.5 7.79289 12.3536 7.64645C12.2071 7.5 11.9714 7.5 11.5 7.5H1C0.528595 7.5 0.292893 7.5 0.146447 7.64645C0 7.79289 0 8.0286 0 8.5V9.75ZM3.125 9.375C3.125 9.25884 3.125 9.20075 3.13461 9.15245C3.17406 8.95411 3.32911 8.79906 3.52746 8.75961C3.57575 8.75 3.63384 8.75 3.75 8.75H5C5.11616 8.75 5.17425 8.75 5.22255 8.75961C5.42089 8.79906 5.57594 8.95411 5.61539 9.15245C5.625 9.20075 5.625 9.25884 5.625 9.375C5.625 9.49116 5.625 9.54925 5.61539 9.59755C5.57594 9.79589 5.42089 9.95094 5.22255 9.99039C5.17425 10 5.11616 10 5 10H3.75C3.63384 10 3.57575 10 3.52746 9.99039C3.32911 9.95094 3.17406 9.79589 3.13461 9.59755C3.125 9.54925 3.125 9.49116 3.125 9.375ZM3.13461 11.6525C3.125 11.7008 3.125 11.7588 3.125 11.875C3.125 11.9912 3.125 12.0492 3.13461 12.0975C3.17406 12.2959 3.32911 12.4509 3.52746 12.4904C3.57575 12.5 3.63384 12.5 3.75 12.5H5C5.11616 12.5 5.17425 12.5 5.22255 12.4904C5.42089 12.4509 5.57594 12.2959 5.61539 12.0975C5.625 12.0492 5.625 11.9912 5.625 11.875C5.625 11.7588 5.625 11.7008 5.61539 11.6525C5.57594 11.4541 5.42089 11.2991 5.22255 11.2596C5.17425 11.25 5.11616 11.25 5 11.25H3.75C3.63384 11.25 3.57575 11.25 3.52746 11.2596C3.32911 11.2991 3.17406 11.4541 3.13461 11.6525ZM6.875 9.375C6.875 9.25884 6.875 9.20075 6.88461 9.15245C6.92406 8.95411 7.07911 8.79906 7.27745 8.75961C7.32575 8.75 7.38384 8.75 7.5 8.75H8.75C8.86616 8.75 8.92424 8.75 8.97254 8.75961C9.17089 8.79906 9.32594 8.95411 9.36539 9.15245C9.375 9.20075 9.375 9.25884 9.375 9.375C9.375 9.49116 9.375 9.54925 9.36539 9.59755C9.32594 9.79589 9.17089 9.95094 8.97254 9.99039C8.92424 10 8.86616 10 8.75 10H7.5C7.38384 10 7.32575 10 7.27745 9.99039C7.07911 9.95094 6.92406 9.79589 6.88461 9.59755C6.875 9.54925 6.875 9.49116 6.875 9.375ZM6.88461 11.6525C6.875 11.7008 6.875 11.7588 6.875 11.875C6.875 11.9912 6.875 12.0492 6.88461 12.0975C6.92406 12.2959 7.07911 12.4509 7.27745 12.4904C7.32575 12.5 7.38384 12.5 7.5 12.5H8.75C8.86616 12.5 8.92424 12.5 8.97254 12.4904C9.17089 12.4509 9.32594 12.2959 9.36539 12.0975C9.375 12.0492 9.375 11.9912 9.375 11.875C9.375 11.7588 9.375 11.7008 9.36539 11.6525C9.32594 11.4541 9.17089 11.2991 8.97254 11.2596C8.92424 11.25 8.86616 11.25 8.75 11.25H7.5C7.38384 11.25 7.32575 11.25 7.27745 11.2596C7.07911 11.2991 6.92406 11.4541 6.88461 11.6525Z" fill="#5D697A"/>
<path d="M0 5.625C0 5.16034 0 4.92802 0.0384294 4.73482C0.196243 3.94144 0.816438 3.32124 1.60982 3.16343C1.80302 3.125 2.03534 3.125 2.5 3.125H10C10.4647 3.125 10.697 3.125 10.8902 3.16343C11.6836 3.32124 12.3038 3.94144 12.4616 4.73482C12.5 4.92802 12.5 5.16034 12.5 5.625V5.625C12.5 5.74116 12.5 5.79925 12.4904 5.84754C12.4509 6.04589 12.2959 6.20094 12.0975 6.24039C12.0492 6.25 11.9912 6.25 11.875 6.25H0.625C0.508836 6.25 0.450754 6.25 0.402455 6.24039C0.20411 6.20094 0.0490607 6.04589 0.00960735 5.84754C0 5.79925 0 5.74116 0 5.625V5.625Z" fill="#5D697A"/>
</svg>
