<svg width="14" height="14" viewBox="0 0 14 14" fill="none" xmlns="http://www.w3.org/2000/svg">
<path fill-rule="evenodd" clip-rule="evenodd" d="M13.4621 9.69155C13.4621 12.6643 10.7694 13.9999 6.99962 13.9999C3.22982 13.9999 0.537109 12.6643 0.537109 9.71309C0.537109 6.48183 2.15274 4.84455 5.38399 3.20738L4.23972 1.07721C4.17147 0.970455 4.13347 0.847178 4.12977 0.720523C4.12608 0.593868 4.15682 0.468585 4.21873 0.358032C4.28064 0.247478 4.3714 0.155798 4.48132 0.0927673C4.59123 0.0297367 4.7162 -0.00228148 4.84288 0.000126464H9.40972C9.52849 0.00314575 9.64454 0.0363393 9.74693 0.0965824C9.84933 0.156825 9.93472 0.242136 9.99505 0.344483C10.0554 0.446831 10.0887 0.562847 10.0918 0.681612C10.0949 0.800377 10.0678 0.917982 10.0129 1.02336L8.61525 3.20738C11.8465 4.82301 13.4621 6.46029 13.4621 9.69155ZM7.6246 4.88733C7.6246 4.54215 7.34478 4.26233 6.9996 4.26233C6.65443 4.26233 6.3746 4.54215 6.3746 4.88733V5.51388C5.44759 5.55273 4.70798 6.31655 4.70798 7.25311C4.70798 8.07118 5.2776 8.77887 6.07676 8.95368L7.54986 9.27592C7.83656 9.33864 8.04129 9.59292 8.04129 9.88685C8.04129 10.2323 7.76117 10.5123 7.4163 10.5123H6.58297C6.31182 10.5123 6.07948 10.3393 5.99338 10.0957C5.87835 9.77024 5.52127 9.59966 5.19583 9.71469C4.87038 9.82972 4.6998 10.1868 4.81483 10.5122C5.04977 11.177 5.64929 11.6707 6.3746 11.7509V12.3873C6.3746 12.7325 6.65443 13.0123 6.9996 13.0123C7.34478 13.0123 7.6246 12.7325 7.6246 12.3873V11.7509C8.56233 11.6472 9.29129 10.8517 9.29129 9.88685C9.29129 9.00594 8.67797 8.24314 7.81698 8.0548L6.34388 7.73256C6.11857 7.68327 5.95798 7.48375 5.95798 7.25311C5.95798 6.98206 6.17771 6.76233 6.44876 6.76233H7.4163C7.60134 6.76233 7.76696 6.84195 7.88229 6.97081C7.93648 7.03136 7.97868 7.10197 8.00589 7.17894C8.12092 7.50438 8.47799 7.67496 8.80344 7.55993C9.12889 7.4449 9.29947 7.08783 9.18444 6.76238C9.10189 6.52883 8.97474 6.31708 8.81371 6.13717C8.51469 5.80308 8.09581 5.576 7.6246 5.5238V4.88733Z" fill="#5D697A"/>
</svg>
