<svg width="12" height="14" viewBox="0 0 12 14" fill="none" xmlns="http://www.w3.org/2000/svg">
<path d="M9.75 4H6.5V8.79281L8.14656 7.14656C8.24109 7.05675 8.36697 7.00742 8.49735 7.00909C8.62773 7.01076 8.7523 7.0633 8.8445 7.1555C8.9367 7.2477 8.98924 7.37227 8.99091 7.50265C8.99258 7.63303 8.94325 7.75891 8.85344 7.85344L6.35344 10.3534C6.25968 10.4471 6.13255 10.4998 6 10.4998C5.86745 10.4998 5.74032 10.4471 5.64656 10.3534L3.14656 7.85344C3.05675 7.75891 3.00742 7.63303 3.00909 7.50265C3.01076 7.37227 3.0633 7.2477 3.1555 7.1555C3.2477 7.0633 3.37227 7.01076 3.50265 7.00909C3.63303 7.00742 3.75891 7.05675 3.85344 7.14656L5.5 8.79281V4H2.25C1.78602 4.0005 1.34119 4.18503 1.01311 4.51311C0.68503 4.84119 0.500496 5.28602 0.5 5.75V12.25C0.500496 12.714 0.68503 13.1588 1.01311 13.4869C1.34119 13.815 1.78602 13.9995 2.25 14H9.75C10.214 13.9995 10.6588 13.815 10.9869 13.4869C11.315 13.1588 11.4995 12.714 11.5 12.25V5.75C11.4995 5.28602 11.315 4.84119 10.9869 4.51311C10.6588 4.18503 10.214 4.0005 9.75 4ZM6.5 0.5C6.5 0.367392 6.44732 0.240215 6.35355 0.146447C6.25979 0.0526784 6.13261 0 6 0C5.86739 0 5.74021 0.0526784 5.64645 0.146447C5.55268 0.240215 5.5 0.367392 5.5 0.5V4H6.5V0.5Z" fill="#5D697A"/>
</svg>
