<svg width="32" height="29" viewBox="0 0 32 29" fill="none" xmlns="http://www.w3.org/2000/svg">
<path d="M31.3957 25.9167L25.4165 19.9375C25.9998 18.4792 25.7082 16.5834 24.3957 15.4167C23.0832 14.1042 21.1873 13.8125 19.5832 14.5417L22.354 17.3125L20.3123 19.3542L17.3957 16.4375C16.6665 18.0417 16.9582 19.9375 18.2707 21.3959C19.5832 22.7084 21.3332 23 22.7915 22.4167L28.7707 28.3959C29.0623 28.6875 29.4998 28.6875 29.6457 28.3959L31.104 26.9375C31.5415 26.5 31.5415 26.0625 31.3957 25.9167ZM16.9582 24.1667H0.916504V21.25C0.916504 18.0417 6.1665 15.4167 12.5832 15.4167C13.3123 15.4167 14.0415 15.4167 14.6248 15.5625C14.1873 16.4375 14.0415 17.3125 14.0415 18.3334C14.0415 20.6667 15.2082 22.8542 16.9582 24.1667ZM12.5832 0.833374C9.37484 0.833374 6.74984 3.45837 6.74984 6.66671C6.74984 9.87504 9.37484 12.5 12.5832 12.5C15.7915 12.5 18.4165 9.87504 18.4165 6.66671C18.4165 3.45837 15.7915 0.833374 12.5832 0.833374Z" fill="#FDB600"/>
</svg>
