<svg width="35" height="32" viewBox="0 0 35 32" fill="none" xmlns="http://www.w3.org/2000/svg">
<path fill-rule="evenodd" clip-rule="evenodd" d="M20 8.25012C20 12.3923 16.6421 15.7501 12.5 15.7501C8.35786 15.7501 5 12.3923 5 8.25012C5 4.10799 8.35786 0.750122 12.5 0.750122C16.6421 0.750122 20 4.10799 20 8.25012ZM12.5 18.25C5.59644 18.25 0 23.8465 0 30.75C0 31.4404 0.559644 32 1.25 32H23.75C24.4404 32 25 31.4404 25 30.75C25 23.8465 19.4036 18.25 12.5 18.25ZM33.7502 32H27.944C28.0619 31.604 28.1252 31.1844 28.1252 30.75C28.1252 25.6474 25.6792 21.116 21.8958 18.2644C22.0961 18.2549 22.2976 18.25 22.5002 18.25C29.4038 18.25 35.0002 23.8465 35.0002 30.75C35.0002 31.4404 34.4405 32 33.7502 32ZM22.5002 15.7501C21.7459 15.7501 21.0176 15.6388 20.3308 15.4316C22.0661 13.5405 23.1252 11.019 23.1252 8.25012C23.1252 5.48124 22.0661 2.95974 20.3308 1.06866C21.0176 0.861482 21.7459 0.750122 22.5002 0.750122C26.6423 0.750122 30.0002 4.10799 30.0002 8.25012C30.0002 12.3923 26.6423 15.7501 22.5002 15.7501Z" fill="#FD4C00"/>
</svg>
