<svg width="29" height="29" viewBox="0 0 29 29" fill="none" xmlns="http://www.w3.org/2000/svg">
<path d="M14.5 0.28125C11.6878 0.28125 8.93875 1.11517 6.60049 2.67754C4.26223 4.23992 2.43978 6.46058 1.36359 9.05872C0.287411 11.6569 0.00583208 14.5158 0.554466 17.2739C1.1031 20.0321 2.4573 22.5656 4.44583 24.5542C6.43436 26.5427 8.9679 27.8969 11.7261 28.4455C14.4842 28.9942 17.3431 28.7126 19.9413 27.6364C22.5394 26.5602 24.7601 24.7378 26.3225 22.3995C27.8848 20.0613 28.7188 17.3122 28.7188 14.5C28.7148 10.7302 27.2155 7.11589 24.5498 4.45022C21.8841 1.78455 18.2698 0.285231 14.5 0.28125ZM7.93751 6.84375H21.0625C21.3526 6.84375 21.6308 6.95898 21.8359 7.1641C22.041 7.36922 22.1563 7.64742 22.1563 7.9375C22.1563 8.22758 22.041 8.50578 21.8359 8.7109C21.6308 8.91602 21.3526 9.03125 21.0625 9.03125H7.93751C7.64743 9.03125 7.36923 8.91602 7.16411 8.7109C6.95899 8.50578 6.84376 8.22758 6.84376 7.9375C6.84376 7.64742 6.95899 7.36922 7.16411 7.1641C7.36923 6.95898 7.64743 6.84375 7.93751 6.84375ZM24.3438 21.0625C24.3438 21.3526 24.2285 21.6308 24.0234 21.8359C23.8183 22.041 23.5401 22.1562 23.25 22.1562H19.9688C18.8084 22.1562 17.6956 21.6953 16.8752 20.8748C16.0547 20.0544 15.5938 18.9416 15.5938 17.7812V14.5H13.3352C13.0891 16.3983 12.2304 18.1644 10.8893 19.5302C9.54815 20.896 7.79797 21.7868 5.9045 22.0674C5.85291 22.0751 5.8008 22.0788 5.74864 22.0783C5.47205 22.078 5.20584 21.9729 5.00361 21.7843C4.80138 21.5955 4.67816 21.3372 4.65875 21.0613C4.63934 20.7854 4.72518 20.5124 4.899 20.2972C5.07281 20.0821 5.32169 19.9408 5.59551 19.9018C6.96831 19.6978 8.24175 19.0658 9.23446 18.096C10.2272 17.1261 10.8886 15.8677 11.1244 14.5H6.84376C6.55368 14.5 6.27548 14.3848 6.07036 14.1796C5.86524 13.9745 5.75001 13.6963 5.75001 13.4062C5.75001 13.1162 5.86524 12.838 6.07036 12.6329C6.27548 12.4277 6.55368 12.3125 6.84376 12.3125H22.1563C22.4463 12.3125 22.7245 12.4277 22.9297 12.6329C23.1348 12.838 23.25 13.1162 23.25 13.4062C23.25 13.6963 23.1348 13.9745 22.9297 14.1796C22.7245 14.3848 22.4463 14.5 22.1563 14.5H17.7813V17.7812C17.7813 18.3614 18.0117 18.9178 18.422 19.328C18.8322 19.7383 19.3886 19.9688 19.9688 19.9688H22.1563V18.875C22.1563 18.5849 22.2715 18.3067 22.4766 18.1016C22.6817 17.8965 22.9599 17.7812 23.25 17.7812C23.5401 17.7812 23.8183 17.8965 24.0234 18.1016C24.2285 18.3067 24.3438 18.5849 24.3438 18.875V21.0625Z" fill="#7A5AF8"/>
</svg>
