<svg width="25" height="29" viewBox="0 0 25 29" fill="none" xmlns="http://www.w3.org/2000/svg">
<path fill-rule="evenodd" clip-rule="evenodd" d="M9.5835 0.291626C7.92664 0.291626 6.5835 1.63477 6.5835 3.29163H5.93766C3.88949 3.29163 2.8654 3.29163 2.12975 3.78317C1.81128 3.99597 1.53784 4.26941 1.32504 4.58788C0.833496 5.32353 0.833496 6.34762 0.833496 8.39579V22.25C0.833496 24.9998 0.833496 26.3748 1.68777 27.229C2.54204 28.0833 3.91697 28.0833 6.66683 28.0833H18.3335C21.0834 28.0833 22.4583 28.0833 23.3126 27.229C24.1668 26.3748 24.1668 24.9998 24.1668 22.25V8.39579C24.1668 6.34762 24.1668 5.32353 23.6753 4.58788C23.4625 4.26941 23.189 3.99597 22.8706 3.78317C22.1349 3.29163 21.1108 3.29163 19.0627 3.29163H18.4168C18.4168 1.63477 17.0737 0.291626 15.4168 0.291626H9.5835ZM10.0418 3.29163C10.0418 2.73934 10.4895 2.29163 11.0418 2.29163H13.9585C14.5108 2.29163 14.9585 2.73934 14.9585 3.29163C14.9585 3.84391 14.5108 4.29163 13.9585 4.29163H11.0418C10.4895 4.29163 10.0418 3.84391 10.0418 3.29163ZM8.12516 12.5C7.57288 12.5 7.12516 12.9477 7.12516 13.5C7.12516 14.0522 7.57288 14.5 8.12516 14.5H16.8752C17.4274 14.5 17.8752 14.0522 17.8752 13.5C17.8752 12.9477 17.4274 12.5 16.8752 12.5H8.12516ZM8.12516 18.3333C7.57288 18.3333 7.12516 18.781 7.12516 19.3333C7.12516 19.8856 7.57288 20.3333 8.12516 20.3333H13.9585C14.5108 20.3333 14.9585 19.8856 14.9585 19.3333C14.9585 18.781 14.5108 18.3333 13.9585 18.3333H8.12516Z" fill="#12B76A"/>
</svg>
