<svg width="35" height="35" viewBox="0 0 35 35" fill="none" xmlns="http://www.w3.org/2000/svg">
<path d="M14.5833 18.9584C17.805 18.9584 20.4167 16.3467 20.4167 13.125C20.4167 9.90336 17.805 7.29169 14.5833 7.29169C11.3617 7.29169 8.75 9.90336 8.75 13.125C8.75 16.3467 11.3617 18.9584 14.5833 18.9584Z" fill="#12B76A"/>
<path d="M23.902 22.6916C21.452 21.4375 18.2728 20.4166 14.5833 20.4166C10.8937 20.4166 7.71451 21.4375 5.26451 22.6916C4.55293 23.0582 3.95683 23.6147 3.54237 24.2994C3.12791 24.9842 2.9113 25.7704 2.9166 26.5708V30.625H26.2499V26.5708C26.2499 24.9375 25.3603 23.4354 23.902 22.6916ZM29.2395 3.51456L27.1833 1.45831C22.0645 6.57706 22.0645 14.8896 27.1833 20.0229L29.2395 17.9666C25.2583 13.9708 25.2583 7.49581 29.2395 3.51456Z" fill="#12B76A"/>
<path d="M33.3666 7.64164L31.3103 5.58539C29.9444 6.95335 29.1772 8.80746 29.1772 10.7406C29.1772 12.6737 29.9444 14.5278 31.3103 15.8958L33.3666 13.8396C32.5471 13.0164 32.087 11.9021 32.087 10.7406C32.087 9.57906 32.5471 8.46482 33.3666 7.64164Z" fill="#12B76A"/>
</svg>
