<svg width="35" height="35" viewBox="0 0 35 35" fill="none" xmlns="http://www.w3.org/2000/svg">
<path d="M27.7083 5.83329H21.6125C21.306 4.98869 20.7468 4.25896 20.011 3.74327C19.2752 3.22757 18.3985 2.95093 17.5 2.95093C16.6015 2.95093 15.7248 3.22757 14.989 3.74327C14.2532 4.25896 13.694 4.98869 13.3875 5.83329H7.29167C6.51812 5.83329 5.77625 6.14058 5.22927 6.68756C4.68229 7.23454 4.375 7.97641 4.375 8.74996V29.1666C4.375 29.9402 4.68229 30.682 5.22927 31.229C5.77625 31.776 6.51812 32.0833 7.29167 32.0833H27.7083C28.4819 32.0833 29.2237 31.776 29.7707 31.229C30.3177 30.682 30.625 29.9402 30.625 29.1666V8.74996C30.625 7.97641 30.3177 7.23454 29.7707 6.68756C29.2237 6.14058 28.4819 5.83329 27.7083 5.83329ZM17.5 5.83329C17.7884 5.83329 18.0704 5.91882 18.3102 6.07906C18.55 6.23931 18.7369 6.46707 18.8473 6.73354C18.9577 7.00002 18.9866 7.29324 18.9303 7.57613C18.874 7.85902 18.7351 8.11887 18.5312 8.32282C18.3272 8.52677 18.0674 8.66567 17.7845 8.72193C17.5016 8.7782 17.2084 8.74933 16.9419 8.63895C16.6754 8.52857 16.4477 8.34165 16.2874 8.10183C16.1272 7.86201 16.0417 7.58005 16.0417 7.29162C16.0417 6.90485 16.1953 6.53392 16.4688 6.26043C16.7423 5.98694 17.1132 5.83329 17.5 5.83329ZM27.7083 27.7083H7.29167V21.875H27.7083V27.7083ZM27.7083 18.9583H7.29167V13.125H27.7083V18.9583Z" fill="#12B76A"/>
<path d="M24.7918 17.5C25.5972 17.5 26.2502 16.8471 26.2502 16.0417C26.2502 15.2363 25.5972 14.5834 24.7918 14.5834C23.9864 14.5834 23.3335 15.2363 23.3335 16.0417C23.3335 16.8471 23.9864 17.5 24.7918 17.5Z" fill="#12B76A"/>
<path d="M20.4168 17.5C21.2222 17.5 21.8752 16.8471 21.8752 16.0417C21.8752 15.2363 21.2222 14.5834 20.4168 14.5834C19.6114 14.5834 18.9585 15.2363 18.9585 16.0417C18.9585 16.8471 19.6114 17.5 20.4168 17.5Z" fill="#12B76A"/>
<path d="M20.4168 26.25C21.2222 26.25 21.8752 25.5971 21.8752 24.7917C21.8752 23.9863 21.2222 23.3334 20.4168 23.3334C19.6114 23.3334 18.9585 23.9863 18.9585 24.7917C18.9585 25.5971 19.6114 26.25 20.4168 26.25Z" fill="#12B76A"/>
<path d="M24.7918 26.25C25.5972 26.25 26.2502 25.5971 26.2502 24.7917C26.2502 23.9863 25.5972 23.3334 24.7918 23.3334C23.9864 23.3334 23.3335 23.9863 23.3335 24.7917C23.3335 25.5971 23.9864 26.25 24.7918 26.25Z" fill="#12B76A"/>
<path d="M8.75 14.5834H16.0417V17.5H8.75V14.5834ZM8.75 23.3334H16.0417V26.25H8.75V23.3334Z" fill="#12B76A"/>
</svg>
