<svg width="36" height="36" viewBox="0 0 36 36" fill="none" xmlns="http://www.w3.org/2000/svg">
<g clip-path="url(#clip0_1431_6821)">
<path d="M33 6.39998L29.3 2.69998C28.982 2.39676 28.5594 2.2276 28.12 2.2276C27.6806 2.2276 27.258 2.39676 26.94 2.69998L23.65 5.99998H6C5.46957 5.99998 4.96086 6.2107 4.58579 6.58577C4.21071 6.96084 4 7.46955 4 7.99998V30C4 30.5304 4.21071 31.0391 4.58579 31.4142C4.96086 31.7893 5.46957 32 6 32H28C28.5304 32 29.0391 31.7893 29.4142 31.4142C29.7893 31.0391 30 30.5304 30 30V11.76L33 8.75998C33.3127 8.44687 33.4883 8.02247 33.4883 7.57998C33.4883 7.1375 33.3127 6.7131 33 6.39998ZM18.83 20.13L14.64 21.06L15.64 16.91L25.19 7.33998L28.42 10.57L18.83 20.13ZM29.5 9.42998L26.27 6.19998L28.12 4.34998L31.35 7.57998L29.5 9.42998Z" fill="#FDB600"/>
</g>
<defs>
<clipPath id="clip0_1431_6821">
<rect width="36" height="36" fill="white"/>
</clipPath>
</defs>
</svg>
