<svg width="21" height="26" viewBox="0 0 21 26" fill="none" xmlns="http://www.w3.org/2000/svg">
<path fill-rule="evenodd" clip-rule="evenodd" d="M0.87729 1.41916C0.291504 2.00495 0.291504 2.94775 0.291504 4.83337V21.625C0.291504 23.5107 0.291504 24.4535 0.87729 25.0393C1.46308 25.625 2.40588 25.625 4.2915 25.625H16.7082C18.5938 25.625 19.5366 25.625 20.1224 25.0393C20.7082 24.4535 20.7082 23.5107 20.7082 21.625V4.83337C20.7082 2.94776 20.7082 2.00495 20.1224 1.41916C19.5366 0.833374 18.5938 0.833374 16.7082 0.833374H4.2915C2.40589 0.833374 1.46308 0.833374 0.87729 1.41916ZM6.12484 7.12504C5.57255 7.12504 5.12484 7.57276 5.12484 8.12504C5.12484 8.67733 5.57255 9.12504 6.12484 9.12504H14.8748C15.4271 9.12504 15.8748 8.67733 15.8748 8.12504C15.8748 7.57276 15.4271 7.12504 14.8748 7.12504H6.12484ZM6.12484 12.9584C5.57255 12.9584 5.12484 13.4061 5.12484 13.9584C5.12484 14.5107 5.57255 14.9584 6.12484 14.9584H14.8748C15.4271 14.9584 15.8748 14.5107 15.8748 13.9584C15.8748 13.4061 15.4271 12.9584 14.8748 12.9584H6.12484ZM6.12484 18.7917C5.57255 18.7917 5.12484 19.2394 5.12484 19.7917C5.12484 20.344 5.57255 20.7917 6.12484 20.7917H11.9582C12.5105 20.7917 12.9582 20.344 12.9582 19.7917C12.9582 19.2394 12.5105 18.7917 11.9582 18.7917H6.12484Z" fill="#FDB600"/>
</svg>
