<svg width="31" height="23" viewBox="0 0 31 23" fill="none" xmlns="http://www.w3.org/2000/svg">
<path d="M5.65625 0.5625C4.20585 0.5625 2.81485 1.13867 1.78926 2.16426C0.76367 3.18985 0.1875 4.58085 0.1875 6.03125V7.125H30.8125V6.03125C30.8125 4.58085 30.2363 3.18985 29.2107 2.16426C28.1852 1.13867 26.7942 0.5625 25.3438 0.5625H5.65625ZM30.8125 9.3125H0.1875V16.9688C0.1875 18.4192 0.76367 19.8102 1.78926 20.8357C2.81485 21.8613 4.20585 22.4375 5.65625 22.4375H25.3438C26.7942 22.4375 28.1852 21.8613 29.2107 20.8357C30.2363 19.8102 30.8125 18.4192 30.8125 16.9688V9.3125ZM20.9688 15.875H25.3438C25.6338 15.875 25.912 15.9902 26.1171 16.1954C26.3223 16.4005 26.4375 16.6787 26.4375 16.9688C26.4375 17.2588 26.3223 17.537 26.1171 17.7421C25.912 17.9473 25.6338 18.0625 25.3438 18.0625H20.9688C20.6787 18.0625 20.4005 17.9473 20.1954 17.7421C19.9902 17.537 19.875 17.2588 19.875 16.9688C19.875 16.6787 19.9902 16.4005 20.1954 16.1954C20.4005 15.9902 20.6787 15.875 20.9688 15.875Z" fill="#FDB600"/>
</svg>
