<svg width="34" height="28" viewBox="0 0 34 28" fill="none" xmlns="http://www.w3.org/2000/svg">
<path d="M5.02941 12.125C6.87877 12.125 8.38235 10.4434 8.38235 8.375C8.38235 6.30664 6.87877 4.625 5.02941 4.625C3.18006 4.625 1.67647 6.30664 1.67647 8.375C1.67647 10.4434 3.18006 12.125 5.02941 12.125ZM28.5 12.125C30.3494 12.125 31.8529 10.4434 31.8529 8.375C31.8529 6.30664 30.3494 4.625 28.5 4.625C26.6506 4.625 25.1471 6.30664 25.1471 8.375C25.1471 10.4434 26.6506 12.125 28.5 12.125ZM30.1765 14H26.8235C25.9015 14 25.0685 14.416 24.4608 15.0898C26.5721 16.3848 28.0704 18.7227 28.3952 21.5H31.8529C32.7802 21.5 33.5294 20.6621 33.5294 19.625V17.75C33.5294 15.6816 32.0258 14 30.1765 14ZM16.7647 14C20.0076 14 22.6324 11.0645 22.6324 7.4375C22.6324 3.81055 20.0076 0.875 16.7647 0.875C13.5218 0.875 10.8971 3.81055 10.8971 7.4375C10.8971 11.0645 13.5218 14 16.7647 14ZM20.7882 15.875H20.3534C19.2637 16.4609 18.0535 16.8125 16.7647 16.8125C15.4759 16.8125 14.271 16.4609 13.176 15.875H12.7412C9.40919 15.875 6.70588 18.8984 6.70588 22.625V24.3125C6.70588 25.8652 7.83226 27.125 9.22059 27.125H24.3088C25.6972 27.125 26.8235 25.8652 26.8235 24.3125V22.625C26.8235 18.8984 24.1202 15.875 20.7882 15.875ZM9.06866 15.0898C8.46094 14.416 7.62794 14 6.70588 14H3.35294C1.50358 14 0 15.6816 0 17.75V19.625C0 20.6621 0.749173 21.5 1.67647 21.5H5.12895C5.45901 18.7227 6.95735 16.3848 9.06866 15.0898Z" fill="#FD4C00"/>
</svg>
