<svg width="27" height="27" viewBox="0 0 27 27" fill="none" xmlns="http://www.w3.org/2000/svg">
<path d="M8.03125 10.5833C7.74117 10.5833 7.46297 10.6986 7.25785 10.9037C7.05273 11.1088 6.9375 11.387 6.9375 11.6771C6.9375 11.9672 7.05273 12.2454 7.25785 12.4505C7.46297 12.6556 7.74117 12.7708 8.03125 12.7708C8.32133 12.7708 8.59953 12.6556 8.80465 12.4505C9.00977 12.2454 9.125 11.9672 9.125 11.6771C9.125 11.387 9.00977 11.1088 8.80465 10.9037C8.59953 10.6986 8.32133 10.5833 8.03125 10.5833ZM6.9375 19.6979C6.9375 19.4078 7.05273 19.1296 7.25785 18.9245C7.46297 18.7194 7.74117 18.6042 8.03125 18.6042C8.32133 18.6042 8.59953 18.7194 8.80465 18.9245C9.00977 19.1296 9.125 19.4078 9.125 19.6979C9.125 19.988 9.00977 20.2662 8.80465 20.4713C8.59953 20.6764 8.32133 20.7917 8.03125 20.7917C7.74117 20.7917 7.46297 20.6764 7.25785 20.4713C7.05273 20.2662 6.9375 19.988 6.9375 19.6979ZM0.375 5.11458C0.375 3.85757 0.874347 2.65204 1.76319 1.76319C2.65204 0.874347 3.85757 0.375 5.11458 0.375H21.8854C23.1424 0.375 24.348 0.874347 25.2368 1.76319C26.1257 2.65204 26.625 3.85757 26.625 5.11458V21.8854C26.625 23.1424 26.1257 24.348 25.2368 25.2368C24.348 26.1257 23.1424 26.625 21.8854 26.625H5.11458C3.85757 26.625 2.65204 26.1257 1.76319 25.2368C0.874347 24.348 0.375 23.1424 0.375 21.8854V5.11458ZM4.75 11.6771C4.75 12.108 4.83487 12.5347 4.99977 12.9328C5.16467 13.3309 5.40636 13.6926 5.71106 13.9973C6.01575 14.302 6.37747 14.5437 6.77557 14.7086C7.17367 14.8735 7.60035 14.9583 8.03125 14.9583C8.46215 14.9583 8.88883 14.8735 9.28693 14.7086C9.68503 14.5437 10.0468 14.302 10.3514 13.9973C10.6561 13.6926 10.8978 13.3309 11.0627 12.9328C11.2276 12.5347 11.3125 12.108 11.3125 11.6771C11.3125 10.8068 10.9668 9.97224 10.3514 9.35689C9.73609 8.74154 8.90149 8.39583 8.03125 8.39583C7.16101 8.39583 6.32641 8.74154 5.71106 9.35689C5.0957 9.97224 4.75 10.8068 4.75 11.6771ZM8.03125 16.4167C7.16101 16.4167 6.32641 16.7624 5.71106 17.3777C5.0957 17.9931 4.75 18.8277 4.75 19.6979C4.75 20.5682 5.0957 21.4028 5.71106 22.0181C6.32641 22.6335 7.16101 22.9792 8.03125 22.9792C8.90149 22.9792 9.73609 22.6335 10.3514 22.0181C10.9668 21.4028 11.3125 20.5682 11.3125 19.6979C11.3125 18.8277 10.9668 17.9931 10.3514 17.3777C9.73609 16.7624 8.90149 16.4167 8.03125 16.4167ZM13.5 11.6771C13.5 12.2808 13.99 12.7708 14.5938 12.7708H21.1562C21.4463 12.7708 21.7245 12.6556 21.9296 12.4505C22.1348 12.2454 22.25 11.9672 22.25 11.6771C22.25 11.387 22.1348 11.1088 21.9296 10.9037C21.7245 10.6986 21.4463 10.5833 21.1562 10.5833H14.5938C14.3037 10.5833 14.0255 10.6986 13.8204 10.9037C13.6152 11.1088 13.5 11.387 13.5 11.6771ZM14.5938 18.6042C14.3037 18.6042 14.0255 18.7194 13.8204 18.9245C13.6152 19.1296 13.5 19.4078 13.5 19.6979C13.5 19.988 13.6152 20.2662 13.8204 20.4713C14.0255 20.6764 14.3037 20.7917 14.5938 20.7917H21.1562C21.4463 20.7917 21.7245 20.6764 21.9296 20.4713C22.1348 20.2662 22.25 19.988 22.25 19.6979C22.25 19.4078 22.1348 19.1296 21.9296 18.9245C21.7245 18.7194 21.4463 18.6042 21.1562 18.6042H14.5938ZM4.75 5.11458C4.75 5.71833 5.24 6.20833 5.84375 6.20833H21.1562C21.4463 6.20833 21.7245 6.0931 21.9296 5.88798C22.1348 5.68286 22.25 5.40466 22.25 5.11458C22.25 4.8245 22.1348 4.5463 21.9296 4.34119C21.7245 4.13607 21.4463 4.02083 21.1562 4.02083H5.84375C5.55367 4.02083 5.27547 4.13607 5.07035 4.34119C4.86523 4.5463 4.75 4.8245 4.75 5.11458Z" fill="#007AFF"/>
</svg>
