<svg width="31" height="31" viewBox="0 0 31 31" fill="none" xmlns="http://www.w3.org/2000/svg">
<path fill-rule="evenodd" clip-rule="evenodd" d="M18.5966 2.7176V2.71762L18.653 3.28196C18.8164 4.91549 18.8981 5.73226 19.4509 5.96125C20.0037 6.19023 20.639 5.67044 21.9096 4.63086L22.3485 4.27174C23.0143 3.72703 23.3471 3.45468 23.732 3.47387C24.1168 3.49306 24.4209 3.79719 25.0292 4.40544L26.5943 5.97054C27.2025 6.57879 27.5067 6.88292 27.5259 7.26776C27.5451 7.65259 27.2727 7.98547 26.728 8.65123L26.3688 9.0902C25.3293 10.3608 24.8095 10.9961 25.0385 11.5489C25.2674 12.1017 26.0842 12.1834 27.7177 12.3468L28.2822 12.4032C29.1381 12.4888 29.5661 12.5316 29.8246 12.8173C30.0832 13.103 30.0832 13.5331 30.0832 14.3933V16.6067C30.0832 17.4669 30.0832 17.897 29.8246 18.1826C29.5661 18.4683 29.1381 18.5111 28.2822 18.5967H28.2822L27.7183 18.6531C26.0848 18.8165 25.268 18.8981 25.039 19.451C24.81 20.0038 25.3298 20.6391 26.3694 21.9097L26.7281 22.348C27.2728 23.0138 27.5451 23.3467 27.5259 23.7315C27.5067 24.1163 27.2026 24.4205 26.5944 25.0287L26.5944 25.0287L25.0293 26.5938L25.0293 26.5938C24.421 27.2021 24.1169 27.5062 23.732 27.5254C23.3472 27.5446 23.0143 27.2722 22.3486 26.7275L21.9096 26.3684C20.6391 25.3288 20.0038 24.809 19.4509 25.038C18.8981 25.267 18.8165 26.0838 18.6531 27.7173L18.5966 28.2823V28.2823C18.511 29.1382 18.4682 29.5662 18.1825 29.8247C17.8968 30.0833 17.4667 30.0833 16.6065 30.0833H14.3931C13.5329 30.0833 13.1028 30.0833 12.8171 29.8247C12.5315 29.5662 12.4887 29.1382 12.4031 28.2823L12.3466 27.7179C12.1833 26.0843 12.1016 25.2676 11.5488 25.0386C10.996 24.8096 10.3607 25.3294 9.09007 26.369L8.65104 26.7282C7.98528 27.2729 7.6524 27.5453 7.26757 27.5261C6.88273 27.5069 6.57861 27.2027 5.97035 26.5945L4.40526 25.0294C3.797 24.4211 3.49287 24.117 3.47368 23.7322C3.45449 23.3473 3.72684 23.0145 4.27155 22.3487L4.63072 21.9097C5.6703 20.6391 6.19009 20.0038 5.96111 19.451C5.73212 18.8982 4.91536 18.8165 3.28182 18.6532L2.7175 18.5967H2.71748C1.86156 18.5111 1.4336 18.4683 1.17505 18.1826C0.916504 17.897 0.916504 17.4669 0.916504 16.6067L0.916504 14.3933C0.916504 13.5331 0.916504 13.103 1.17505 12.8173C1.4336 12.5316 1.86156 12.4888 2.7175 12.4032L3.28237 12.3467C4.9159 12.1834 5.73267 12.1017 5.96166 11.5489C6.19064 10.996 5.67085 10.3608 4.63128 9.09016L4.27161 8.65057C3.7269 7.98481 3.45455 7.65193 3.47374 7.2671C3.49294 6.88226 3.79706 6.57814 4.40532 5.96988L5.97041 4.40479C6.57867 3.79653 6.8828 3.4924 7.26763 3.47321C7.65247 3.45402 7.98534 3.72637 8.6511 4.27108L9.09014 4.63029C10.3607 5.66987 10.996 6.18966 11.5488 5.96068C12.1017 5.73169 12.1833 4.91492 12.3467 3.28139L12.4031 2.71762C12.4887 1.86169 12.5315 1.43372 12.8171 1.17517C13.1028 0.916626 13.5329 0.916626 14.3931 0.916626H16.6065C17.4667 0.916626 17.8968 0.916626 18.1825 1.17517C18.4682 1.43372 18.511 1.86168 18.5966 2.7176ZM15.4998 21.3333C18.7215 21.3333 21.3332 18.7216 21.3332 15.5C21.3332 12.2783 18.7215 9.66663 15.4998 9.66663C12.2782 9.66663 9.6665 12.2783 9.6665 15.5C9.6665 18.7216 12.2782 21.3333 15.4998 21.3333Z" fill="#7A5AF8"/>
</svg>
