<svg width="31" height="31" viewBox="0 0 31 31" fill="none" xmlns="http://www.w3.org/2000/svg">
<path d="M15.4853 0.916687C7.43525 0.916687 0.916504 7.45002 0.916504 15.5C0.916504 23.55 7.43525 30.0834 15.4853 30.0834C23.5498 30.0834 30.0832 23.55 30.0832 15.5C30.0832 7.45002 23.5498 0.916687 15.4853 0.916687ZM25.5915 9.66669H21.2894C20.833 7.86048 20.1571 6.11695 19.2769 4.47502C21.9371 5.39086 24.1786 7.23378 25.5915 9.66669ZM15.4998 3.89169C16.7103 5.64169 17.6582 7.58127 18.2853 9.66669H12.7144C13.3415 7.58127 14.2894 5.64169 15.4998 3.89169ZM4.21234 18.4167C3.979 17.4834 3.83317 16.5063 3.83317 15.5C3.83317 14.4938 3.979 13.5167 4.21234 12.5834H9.1415C9.02484 13.5459 8.93734 14.5084 8.93734 15.5C8.93734 16.4917 9.02484 17.4542 9.1415 18.4167H4.21234ZM5.40817 21.3334H9.71025C10.1769 23.1563 10.8478 24.9063 11.7228 26.525C9.05979 25.6142 6.81668 23.77 5.40817 21.3334ZM9.71025 9.66669H5.40817C6.81668 7.23007 9.05979 5.38585 11.7228 4.47502C10.8425 6.11695 10.1667 7.86048 9.71025 9.66669ZM15.4998 27.1084C14.2894 25.3584 13.3415 23.4188 12.7144 21.3334H18.2853C17.6582 23.4188 16.7103 25.3584 15.4998 27.1084ZM18.9123 18.4167H12.0873C11.9561 17.4542 11.854 16.4917 11.854 15.5C11.854 14.5084 11.9561 13.5313 12.0873 12.5834H18.9123C19.0436 13.5313 19.1457 14.5084 19.1457 15.5C19.1457 16.4917 19.0436 17.4542 18.9123 18.4167ZM19.2769 26.525C20.1519 24.9063 20.8228 23.1563 21.2894 21.3334H25.5915C24.1786 23.7663 21.9371 25.6092 19.2769 26.525ZM21.8582 18.4167C21.9748 17.4542 22.0623 16.4917 22.0623 15.5C22.0623 14.5084 21.9748 13.5459 21.8582 12.5834H26.7873C27.0207 13.5167 27.1665 14.4938 27.1665 15.5C27.1665 16.5063 27.0207 17.4834 26.7873 18.4167H21.8582Z" fill="#007AFF"/>
</svg>
