<svg width="30" height="32" viewBox="0 0 30 32" fill="none" xmlns="http://www.w3.org/2000/svg">
<mask id="mask0_1431_6799" style="mask-type:luminance" maskUnits="userSpaceOnUse" x="0" y="0" width="30" height="32">
<path d="M0 0H29.8667V32H0V0Z" fill="white"/>
</mask>
<g mask="url(#mask0_1431_6799)">
<path d="M11.2002 12C11.2002 11.2927 11.4624 10.6145 11.9292 10.1144C12.3959 9.61426 13.029 9.33331 13.6891 9.33331V14.6666C13.029 14.6666 12.3959 14.3857 11.9292 13.8856C11.4624 13.3855 11.2002 12.7072 11.2002 12ZM18.6669 20C18.6669 20.7072 18.4046 21.3855 17.9379 21.8856C17.4711 22.3857 16.8381 22.6666 16.178 22.6666V17.3333C16.8381 17.3333 17.4711 17.6143 17.9379 18.1144C18.4046 18.6145 18.6669 19.2927 18.6669 20Z" fill="#FD4C00"/>
<path fill-rule="evenodd" clip-rule="evenodd" d="M29.8667 0H0V32H29.8667V0ZM14.9333 4C15.2634 4 15.5799 4.14048 15.8133 4.39052C16.0467 4.64057 16.1778 4.97971 16.1778 5.33333V6.66667C17.2073 6.66678 18.2115 7.00879 19.0521 7.64561C19.8927 8.28243 20.5285 9.18275 20.8718 10.2227C20.9748 10.5542 20.9522 10.9158 20.8089 11.2296C20.6656 11.5435 20.413 11.7845 20.1055 11.9009C19.798 12.0173 19.4602 11.9997 19.1647 11.8519C18.8692 11.7041 18.6396 11.4379 18.5254 11.1107C18.3536 10.5908 18.0356 10.1407 17.6151 9.8224C17.1947 9.50411 16.6926 9.33325 16.1778 9.33333V14.6667C17.498 14.6667 18.7641 15.2286 19.6976 16.2288C20.6311 17.229 21.1556 18.5855 21.1556 20C21.1556 21.4145 20.6311 22.771 19.6976 23.7712C18.7641 24.7714 17.498 25.3333 16.1778 25.3333V26.6667C16.1778 27.0203 16.0467 27.3594 15.8133 27.6095C15.5799 27.8595 15.2634 28 14.9333 28C14.6033 28 14.2868 27.8595 14.0534 27.6095C13.82 27.3594 13.6889 27.0203 13.6889 26.6667V25.3333C12.6594 25.3332 11.6552 24.9912 10.8146 24.3544C9.97393 23.7176 9.33819 22.8172 8.99485 21.7773C8.89186 21.4458 8.91446 21.0842 9.05777 20.7704C9.20108 20.4565 9.45365 20.2155 9.76114 20.0991C10.0686 19.9827 10.4065 20.0003 10.702 20.1481C10.9975 20.2959 11.227 20.5621 11.3412 20.8893C11.5131 21.4092 11.8311 21.8593 12.2515 22.1776C12.672 22.4959 13.1741 22.6667 13.6889 22.6667V17.3333C12.3687 17.3333 11.1026 16.7714 10.1691 15.7712C9.23555 14.771 8.71111 13.4145 8.71111 12C8.71111 10.5855 9.23555 9.22896 10.1691 8.22876C11.1026 7.22857 12.3687 6.66667 13.6889 6.66667V5.33333C13.6889 4.97971 13.82 4.64057 14.0534 4.39052C14.2868 4.14048 14.6033 4 14.9333 4Z" fill="#FD4C00"/>
</g>
</svg>
