<svg width="13" height="16" viewBox="0 0 13 16" fill="none" xmlns="http://www.w3.org/2000/svg">
<path d="M6.33333 0V5.14583C6.33335 5.44103 6.44331 5.72564 6.64178 5.94416C6.84025 6.16269 7.113 6.29945 7.40683 6.32779L7.52083 6.33333H12.6667V14.25C12.6668 14.6495 12.5159 15.0342 12.2443 15.3271C11.9727 15.62 11.6004 15.7994 11.2021 15.8294L11.0833 15.8333H1.58333C1.18388 15.8335 0.799135 15.6826 0.506233 15.411C0.213331 15.1394 0.0339177 14.7671 0.0039585 14.3687L7.93788e-08 14.25V1.58333C-0.000126334 1.18388 0.150738 0.799135 0.422352 0.506233C0.693965 0.213331 1.06625 0.0339176 1.46458 0.00395842L1.58333 0H6.33333ZM7.91667 0.0340416C8.17267 0.0883894 8.41122 0.205349 8.61096 0.374458L8.70833 0.463917L12.2027 3.95833C12.3882 4.14367 12.5248 4.37218 12.6002 4.62333L12.6318 4.75H7.91667V0.0340416Z" fill="#5D697A"/>
</svg>
