<svg width="13" height="13" viewBox="0 0 13 13" fill="none" xmlns="http://www.w3.org/2000/svg">
<path d="M10.2499 1.5H2.74993C2.0593 1.5 1.48368 2.06875 1.6543 2.7375C1.83595 3.44618 2.17056 4.1065 2.63463 4.67207C3.0987 5.23763 3.68097 5.69473 4.34055 6.01125C4.85493 6.2575 5.24993 6.74125 5.24993 7.31125V11.1138C5.24998 11.2202 5.27725 11.325 5.32914 11.418C5.38103 11.511 5.45583 11.5891 5.54642 11.6451C5.63702 11.7011 5.74042 11.733 5.84681 11.7378C5.95319 11.7426 6.05904 11.7201 6.1543 11.6725L7.4043 11.0475C7.5081 10.9956 7.59541 10.9159 7.65646 10.8172C7.7175 10.7185 7.74986 10.6048 7.74993 10.4888V7.31125C7.74993 6.74125 8.14493 6.2575 8.65868 6.01125C9.31851 5.69491 9.90105 5.23789 10.3654 4.67231C10.8296 4.10673 11.1644 3.44632 11.3462 2.7375C11.5156 2.06875 10.9393 1.5 10.2499 1.5Z" stroke="#5D697A" stroke-width="1.4"/>
</svg>
