<svg width="20" height="20" viewBox="0 0 20 20" fill="none" xmlns="http://www.w3.org/2000/svg">
<g clip-path="url(#clip0_428_3910)">
<path d="M9.99997 19.8901C15.4621 19.8901 19.8901 15.4621 19.8901 9.99997C19.8901 4.53782 15.4621 0.109863 9.99997 0.109863C4.53782 0.109863 0.109863 4.53782 0.109863 9.99997C0.109863 15.4621 4.53782 19.8901 9.99997 19.8901Z" fill="#346DA6"/>
<path fill-rule="evenodd" clip-rule="evenodd" d="M18.0616 4.26948C17.7412 3.81951 17.384 3.39751 16.9945 3.00786L16.9921 3.00547C16.6025 2.61595 16.1805 2.25879 15.7305 1.93835L1.93829 15.7306C2.25873 16.1805 2.61589 16.6025 3.00541 16.9922L3.0078 16.9946C3.39745 17.3841 3.81945 17.7413 4.26941 18.0617L18.0616 4.26948Z" fill="white"/>
<path fill-rule="evenodd" clip-rule="evenodd" d="M15.7305 18.0617C16.1805 17.7413 16.6025 17.3841 16.9921 16.9946L16.9945 16.9922C17.384 16.6025 17.7412 16.1805 18.0616 15.7306L4.26941 1.93835C3.81945 2.25879 3.39745 2.61595 3.0078 3.00547L3.00541 3.00786C2.61589 3.39751 2.25873 3.81951 1.93829 4.26948L15.7305 18.0617Z" fill="white"/>
<path fill-rule="evenodd" clip-rule="evenodd" d="M17.7238 16.1777C17.4942 16.4644 17.249 16.738 16.9894 16.9973L10.0441 10.052L10.8212 9.27499L17.7238 16.1777Z" fill="#CA4638"/>
<path fill-rule="evenodd" clip-rule="evenodd" d="M3.82233 17.7239C3.53563 17.4943 3.26198 17.249 3.00269 16.9894L10.4974 9.49471L11.2745 10.2718L3.82233 17.7239Z" fill="#CA4638"/>
<path fill-rule="evenodd" clip-rule="evenodd" d="M16.1776 2.27611C16.4643 2.50572 16.7379 2.75096 16.9972 3.01054L10.6014 9.40637L9.82434 8.62933L16.1776 2.27611Z" fill="#CA4638"/>
<path fill-rule="evenodd" clip-rule="evenodd" d="M2.27606 3.82234C2.50567 3.53563 2.75091 3.26199 3.01049 3.00269L9.29643 9.28863L8.51939 10.0657L2.27606 3.82234Z" fill="#CA4638"/>
<path fill-rule="evenodd" clip-rule="evenodd" d="M19.7533 11.6483C19.8433 11.1122 19.8901 10.5615 19.8901 9.99991C19.8901 9.4383 19.8433 8.88762 19.7533 8.35156H0.246608C0.156674 8.88762 0.109863 9.4383 0.109863 9.99991C0.109863 10.5615 0.156674 11.1122 0.246608 11.6483H19.7533Z" fill="white"/>
<path fill-rule="evenodd" clip-rule="evenodd" d="M11.6483 19.7533C11.1123 19.8433 10.5616 19.8901 9.99998 19.8901C9.43836 19.8901 8.88768 19.8433 8.35162 19.7533V0.246608C8.88768 0.156674 9.43836 0.109863 9.99998 0.109863C10.5616 0.109863 11.1123 0.156674 11.6483 0.246608V19.7533Z" fill="white"/>
<path fill-rule="evenodd" clip-rule="evenodd" d="M19.8297 11.0989C19.8696 10.7381 19.8901 10.3715 19.8901 10C19.8901 9.62859 19.8696 9.26193 19.8297 8.90112H0.170225C0.130339 9.26193 0.109863 9.62859 0.109863 10C0.109863 10.3715 0.130339 10.7381 0.170225 11.0989H19.8297Z" fill="#CA4638"/>
<path fill-rule="evenodd" clip-rule="evenodd" d="M11.0989 19.8297C10.7381 19.8696 10.3714 19.8901 9.99996 19.8901C9.62852 19.8901 9.26187 19.8696 8.90106 19.8297V0.170225C9.26187 0.130339 9.62852 0.109863 9.99996 0.109863C10.3714 0.109863 10.7381 0.130339 11.0989 0.170225V19.8297Z" fill="#CA4638"/>
</g>
<defs>
<clipPath id="clip0_428_3910">
<rect width="20" height="20" fill="white"/>
</clipPath>
</defs>
</svg>
