<svg width="13" height="17" viewBox="0 0 13 17" fill="none" xmlns="http://www.w3.org/2000/svg">
<path fill-rule="evenodd" clip-rule="evenodd" d="M4.75 0C3.09315 0 1.75 1.34315 1.75 3L1.75003 3.01326C1.27133 3.03607 0.956202 3.09811 0.70368 3.26684C0.530796 3.38236 0.382357 3.5308 0.26684 3.70368C0 4.10303 0 4.65897 0 5.77083V13.2917C0 14.7844 0 15.5308 0.463748 15.9946C0.927495 16.4583 1.67389 16.4583 3.16667 16.4583H9.5C10.9928 16.4583 11.7392 16.4583 12.2029 15.9946C12.6667 15.5308 12.6667 14.7844 12.6667 13.2917V5.77083C12.6667 4.65897 12.6667 4.10303 12.3998 3.70368C12.2843 3.5308 12.1359 3.38236 11.963 3.26684C11.7105 3.09811 11.3953 3.03607 10.9166 3.01326L10.9167 3C10.9167 1.34315 9.57352 0 7.91667 0H4.75ZM4.54167 3C4.54167 2.44772 4.98938 2 5.54167 2H7.125C7.67728 2 8.125 2.44772 8.125 3C8.125 3.55228 7.67728 4 7.125 4H5.54167C4.98938 4 4.54167 3.55228 4.54167 3ZM3.95833 7.54167C3.40605 7.54167 2.95833 7.98938 2.95833 8.54167C2.95833 9.09395 3.40605 9.54167 3.95833 9.54167H8.70833C9.26062 9.54167 9.70833 9.09395 9.70833 8.54167C9.70833 7.98938 9.26062 7.54167 8.70833 7.54167H3.95833ZM3.95833 10.7083C3.40605 10.7083 2.95833 11.156 2.95833 11.7083C2.95833 12.2606 3.40605 12.7083 3.95833 12.7083L7.125 12.7083C7.67728 12.7083 8.125 12.2606 8.125 11.7083C8.125 11.156 7.67728 10.7083 7.125 10.7083L3.95833 10.7083Z" fill="#5D697A"/>
</svg>
