<svg width="18" height="10" viewBox="0 0 18 10" fill="none" xmlns="http://www.w3.org/2000/svg">
<path d="M4 2V3.4602e-06H18V2H4ZM4 6V4H18V6H4ZM4 10V8H18V10H4ZM1 2C0.71667 2 0.479003 1.904 0.287003 1.712C0.0950034 1.52 -0.000663206 1.28267 3.46021e-06 1C3.46021e-06 0.71667 0.0960036 0.479004 0.288004 0.287004C0.480004 0.0950036 0.717337 -0.000663206 1 3.4602e-06C1.28334 3.4602e-06 1.521 0.0960036 1.713 0.288004C1.905 0.480004 2.00067 0.717337 2 1C2 1.28334 1.904 1.521 1.712 1.713C1.52 1.905 1.28267 2.00067 1 2ZM1 6C0.71667 6 0.479003 5.904 0.287003 5.712C0.0950034 5.52 -0.000663206 5.28267 3.46021e-06 5C3.46021e-06 4.71667 0.0960036 4.479 0.288004 4.287C0.480004 4.095 0.717337 3.99934 1 4C1.28334 4 1.521 4.096 1.713 4.288C1.905 4.48 2.00067 4.71734 2 5C2 5.28334 1.904 5.521 1.712 5.713C1.52 5.905 1.28267 6.00067 1 6ZM1 10C0.71667 10 0.479003 9.904 0.287003 9.712C0.0950034 9.52 -0.000663206 9.28267 3.46021e-06 9C3.46021e-06 8.71667 0.0960036 8.479 0.288004 8.287C0.480004 8.095 0.717337 7.99934 1 8C1.28334 8 1.521 8.096 1.713 8.288C1.905 8.48 2.00067 8.71734 2 9C2 9.28334 1.904 9.521 1.712 9.713C1.52 9.905 1.28267 10.0007 1 10Z" fill="#5D697A"/>
</svg>
