<svg width="18" height="16" viewBox="0 0 18 16" fill="none" xmlns="http://www.w3.org/2000/svg">
<path fill-rule="evenodd" clip-rule="evenodd" d="M8 7L4.5 7C3.94772 7 3.5 7.44772 3.5 8C3.5 8.55228 3.94771 9 4.5 9L8 9L8 14C8 15.1046 7.10457 16 6 16L2 16C0.89543 16 -6.60242e-07 15.1046 -6.11959e-07 14L-8.74228e-08 2C-3.91405e-08 0.89543 0.895431 -3.10551e-07 2 -2.62268e-07L6 -8.74228e-08C7.10457 -3.91405e-08 8 0.895431 8 2L8 7Z" fill="#5D697A"/>
<path d="M11 3L16 8M16 8L11 13M16 8L9.5 8" stroke="#5D697A" stroke-width="2"/>
</svg>
