<svg width="10" height="14" viewBox="0 0 10 14" fill="none" xmlns="http://www.w3.org/2000/svg">
<path fill-rule="evenodd" clip-rule="evenodd" d="M7.69547 0.823345L4.37659 0.301806C2.49791 0.00658503 1.55857 -0.141025 0.945912 0.382878C0.333252 0.906781 0.333252 1.85765 0.333252 3.75938V6.56258H4.75631L2.65829 3.94005L3.34155 3.39345L6.00821 6.72678L6.22686 7.00008L6.00821 7.27339L3.34155 10.6067L2.65829 10.0601L4.75631 7.43758H0.333252V10.2401C0.333252 12.1419 0.333252 13.0927 0.945912 13.6166C1.55857 14.1405 2.49791 13.9929 4.37658 13.6977L7.69547 13.1762C8.63623 13.0283 9.10661 12.9544 9.3866 12.627C9.66658 12.2996 9.66658 11.8234 9.66658 10.8711V3.12839C9.66658 2.17609 9.66658 1.69993 9.3866 1.37251C9.10661 1.0451 8.63623 0.971179 7.69547 0.823345Z" fill="#5D697A"/>
</svg>
