<svg width="18" height="18" viewBox="0 0 18 18" fill="none" xmlns="http://www.w3.org/2000/svg">
<path fill-rule="evenodd" clip-rule="evenodd" d="M9 0.75C4.44365 0.75 0.75 4.44365 0.75 9C0.75 13.5563 4.44365 17.25 9 17.25H13.125C14.1717 17.25 14.695 17.25 15.1209 17.1208C16.0797 16.83 16.83 16.0797 17.1208 15.1209C17.25 14.695 17.25 14.1717 17.25 13.125V9C17.25 4.44365 13.5563 0.75 9 0.75ZM5.25 8.08333C5.25 7.53105 5.69772 7.08333 6.25 7.08333H11.75C12.3023 7.08333 12.75 7.53105 12.75 8.08333C12.75 8.63562 12.3023 9.08333 11.75 9.08333H6.25C5.69772 9.08333 5.25 8.63562 5.25 8.08333ZM8 11.75C8 11.1977 8.44772 10.75 9 10.75H11.75C12.3023 10.75 12.75 11.1977 12.75 11.75C12.75 12.3023 12.3023 12.75 11.75 12.75H9C8.44772 12.75 8 12.3023 8 11.75Z" fill="#687287"/>
</svg>
