<svg width="17" height="17" viewBox="0 0 17 17" fill="none" xmlns="http://www.w3.org/2000/svg">
<path d="M5.21875 6.75C5.0447 6.75 4.87778 6.81914 4.75471 6.94221C4.63164 7.06528 4.5625 7.2322 4.5625 7.40625C4.5625 7.5803 4.63164 7.74722 4.75471 7.87029C4.87778 7.99336 5.0447 8.0625 5.21875 8.0625C5.3928 8.0625 5.55972 7.99336 5.68279 7.87029C5.80586 7.74722 5.875 7.5803 5.875 7.40625C5.875 7.2322 5.80586 7.06528 5.68279 6.94221C5.55972 6.81914 5.3928 6.75 5.21875 6.75ZM4.5625 12.2188C4.5625 12.0447 4.63164 11.8778 4.75471 11.7547C4.87778 11.6316 5.0447 11.5625 5.21875 11.5625C5.3928 11.5625 5.55972 11.6316 5.68279 11.7547C5.80586 11.8778 5.875 12.0447 5.875 12.2188C5.875 12.3928 5.80586 12.5597 5.68279 12.6828C5.55972 12.8059 5.3928 12.875 5.21875 12.875C5.0447 12.875 4.87778 12.8059 4.75471 12.6828C4.63164 12.5597 4.5625 12.3928 4.5625 12.2188ZM0.625 3.46875C0.625 2.71454 0.924608 1.99122 1.45792 1.45792C1.99122 0.924608 2.71454 0.625 3.46875 0.625H13.5312C14.2855 0.625 15.0088 0.924608 15.5421 1.45792C16.0754 1.99122 16.375 2.71454 16.375 3.46875V13.5312C16.375 14.2855 16.0754 15.0088 15.5421 15.5421C15.0088 16.0754 14.2855 16.375 13.5312 16.375H3.46875C2.71454 16.375 1.99122 16.0754 1.45792 15.5421C0.924608 15.0088 0.625 14.2855 0.625 13.5312V3.46875ZM3.25 7.40625C3.25 7.66479 3.30092 7.9208 3.39986 8.15966C3.4988 8.39852 3.64382 8.61555 3.82663 8.79837C4.00945 8.98118 4.22648 9.1262 4.46534 9.22514C4.7042 9.32408 4.96021 9.375 5.21875 9.375C5.47729 9.375 5.7333 9.32408 5.97216 9.22514C6.21102 9.1262 6.42805 8.98118 6.61087 8.79837C6.79368 8.61555 6.9387 8.39852 7.03764 8.15966C7.13658 7.9208 7.1875 7.66479 7.1875 7.40625C7.1875 6.88411 6.98008 6.38335 6.61087 6.01413C6.24165 5.64492 5.74089 5.4375 5.21875 5.4375C4.69661 5.4375 4.19585 5.64492 3.82663 6.01413C3.45742 6.38335 3.25 6.88411 3.25 7.40625ZM5.21875 10.25C4.69661 10.25 4.19585 10.4574 3.82663 10.8266C3.45742 11.1958 3.25 11.6966 3.25 12.2188C3.25 12.7409 3.45742 13.2417 3.82663 13.6109C4.19585 13.9801 4.69661 14.1875 5.21875 14.1875C5.74089 14.1875 6.24165 13.9801 6.61087 13.6109C6.98008 13.2417 7.1875 12.7409 7.1875 12.2188C7.1875 11.6966 6.98008 11.1958 6.61087 10.8266C6.24165 10.4574 5.74089 10.25 5.21875 10.25ZM8.5 7.40625C8.5 7.7685 8.794 8.0625 9.15625 8.0625H13.0938C13.2678 8.0625 13.4347 7.99336 13.5578 7.87029C13.6809 7.74722 13.75 7.5803 13.75 7.40625C13.75 7.2322 13.6809 7.06528 13.5578 6.94221C13.4347 6.81914 13.2678 6.75 13.0938 6.75H9.15625C8.9822 6.75 8.81528 6.81914 8.69221 6.94221C8.56914 7.06528 8.5 7.2322 8.5 7.40625ZM9.15625 11.5625C8.9822 11.5625 8.81528 11.6316 8.69221 11.7547C8.56914 11.8778 8.5 12.0447 8.5 12.2188C8.5 12.3928 8.56914 12.5597 8.69221 12.6828C8.81528 12.8059 8.9822 12.875 9.15625 12.875H13.0938C13.2678 12.875 13.4347 12.8059 13.5578 12.6828C13.6809 12.5597 13.75 12.3928 13.75 12.2188C13.75 12.0447 13.6809 11.8778 13.5578 11.7547C13.4347 11.6316 13.2678 11.5625 13.0938 11.5625H9.15625ZM3.25 3.46875C3.25 3.831 3.544 4.125 3.90625 4.125H13.0938C13.2678 4.125 13.4347 4.05586 13.5578 3.93279C13.6809 3.80972 13.75 3.6428 13.75 3.46875C13.75 3.2947 13.6809 3.12778 13.5578 3.00471C13.4347 2.88164 13.2678 2.8125 13.0938 2.8125H3.90625C3.7322 2.8125 3.56528 2.88164 3.44221 3.00471C3.31914 3.12778 3.25 3.2947 3.25 3.46875Z" fill="#007AFF"/>
</svg>
