<svg width="14" height="17" viewBox="0 0 14 17" fill="none" xmlns="http://www.w3.org/2000/svg">
<path fill-rule="evenodd" clip-rule="evenodd" d="M0.585786 0.585786C0 1.17157 0 2.11438 0 4V12.2917C0 14.1773 0 15.1201 0.585786 15.7059C1.17157 16.2917 2.11438 16.2917 4 16.2917H9.41667C11.3023 16.2917 12.2451 16.2917 12.8309 15.7059C13.4167 15.1201 13.4167 14.1773 13.4167 12.2917V4C13.4167 2.11438 13.4167 1.17157 12.8309 0.585786C12.2451 0 11.3023 0 9.41666 0H4C2.11438 0 1.17157 0 0.585786 0.585786ZM3.83333 3.79167C3.28105 3.79167 2.83333 4.23938 2.83333 4.79167C2.83333 5.34395 3.28105 5.79167 3.83333 5.79167H9.58333C10.1356 5.79167 10.5833 5.34395 10.5833 4.79167C10.5833 4.23938 10.1356 3.79167 9.58333 3.79167H3.83333ZM3.83333 7.625C3.28105 7.625 2.83333 8.07271 2.83333 8.625C2.83333 9.17728 3.28105 9.625 3.83333 9.625H9.58333C10.1356 9.625 10.5833 9.17728 10.5833 8.625C10.5833 8.07271 10.1356 7.625 9.58333 7.625H3.83333ZM3.83333 11.4583C3.28105 11.4583 2.83333 11.906 2.83333 12.4583C2.83333 13.0106 3.28105 13.4583 3.83333 13.4583H7.66667C8.21895 13.4583 8.66667 13.0106 8.66667 12.4583C8.66667 11.906 8.21895 11.4583 7.66667 11.4583H3.83333Z" fill="#5D697A"/>
</svg>
