<svg width="15" height="16" viewBox="0 0 15 16" fill="none" xmlns="http://www.w3.org/2000/svg">
<path d="M12.6667 1.58349H9.3575C9.1954 1.12072 8.89349 0.719751 8.49353 0.436067C8.09358 0.152382 7.61535 0 7.125 0C6.63465 0 6.15642 0.152382 5.75647 0.436067C5.35651 0.719751 5.0546 1.12072 4.8925 1.58349H1.58333C1.16379 1.58475 0.761793 1.75196 0.465132 2.04863C0.16847 2.34529 0.00125299 2.74729 0 3.16683V14.2502C0.00125299 14.6697 0.16847 15.0717 0.465132 15.3684C0.761793 15.665 1.16379 15.8322 1.58333 15.8335H12.6667C13.0862 15.8322 13.4882 15.665 13.7849 15.3684C14.0815 15.0717 14.2487 14.6697 14.25 14.2502V3.16683C14.2487 2.74729 14.0815 2.34529 13.7849 2.04863C13.4882 1.75196 13.0862 1.58475 12.6667 1.58349ZM7.125 1.58349C7.28158 1.58349 7.43464 1.62992 7.56483 1.71691C7.69502 1.8039 7.79649 1.92754 7.8564 2.0722C7.91632 2.21686 7.932 2.37604 7.90146 2.52961C7.87091 2.68318 7.79551 2.82424 7.68479 2.93495C7.57408 3.04567 7.43301 3.12107 7.27945 3.15162C7.12588 3.18216 6.9667 3.16648 6.82204 3.10657C6.67738 3.04665 6.55374 2.94518 6.46675 2.81499C6.37976 2.6848 6.33333 2.53174 6.33333 2.37516C6.33396 2.16539 6.41757 1.96439 6.5659 1.81606C6.71423 1.66773 6.91523 1.58412 7.125 1.58349ZM5.54167 5.54183L7.75042 7.75374L9.74542 5.75874L8.70833 4.75016H11.875V7.91683L10.8648 6.87895L7.752 9.99416L5.54167 7.78224L3.49442 9.82791L2.375 8.70849L5.54167 5.54183ZM12.6667 13.4585H1.58333V11.8752H12.6667V13.4585Z" fill="#5D697A"/>
</svg>
