<svg width="12" height="16" viewBox="0 0 12 16" fill="none" xmlns="http://www.w3.org/2000/svg">
<path d="M10.9 2.5C9.3 1.3 9.5 0 9.5 0H0V12.5C0 14.4 2.1 16 4 16H12V3C12 3 11.2 2.8 10.9 2.5ZM5 6.3C4.1 6 2.7 5.5 2.7 4.4C2.8 3.6 4 3 4 2.8V2H5V2.7C6 2.8 6.8 3.1 6.9 3.1L6.6 4C6.6 4 5.9 3.7 5.1 3.7C4.4 3.7 4 4 3.9 4.5C3.9 4.8 4.4 5.1 5.2 5.4C6.7 5.9 7.1 6.5 7.1 7.3C7.1 8 7 8.9 5 9.1V10H4V9.2C4 9.1 2.6 8.7 2.5 8.7L3 7.8C3 7.8 4.1 8.3 5 8.2C5.9 8.1 6.3 7.6 6.3 7.2C6.4 6.9 5.9 6.6 5 6.3ZM11 15H4C3 15 2.2 14.4 2 13.7C1.9 13.4 2 13 2.4 13H9V2.7C10 3.3 11 3.8 11 4V15Z" fill="#5D697A"/>
</svg>
