<svg width="14" height="15" viewBox="0 0 14 15" fill="none" xmlns="http://www.w3.org/2000/svg">
<g clip-path="url(#clip0_600_4092)">
<mask id="mask0_600_4092" style="mask-type:luminance" maskUnits="userSpaceOnUse" x="0" y="0" width="14" height="15">
<path d="M0 0H14V15H0V0Z" fill="white"/>
</mask>
<g mask="url(#mask0_600_4092)">
<path d="M5.25 5.625C5.25 5.29348 5.37292 4.97554 5.59171 4.74112C5.8105 4.5067 6.10725 4.375 6.41667 4.375V6.875C6.10725 6.875 5.8105 6.7433 5.59171 6.50888C5.37292 6.27446 5.25 5.95652 5.25 5.625ZM8.75 9.375C8.75 9.70652 8.62708 10.0245 8.40829 10.2589C8.1895 10.4933 7.89275 10.625 7.58333 10.625V8.125C7.89275 8.125 8.1895 8.2567 8.40829 8.49112C8.62708 8.72554 8.75 9.04348 8.75 9.375Z" fill="#5D697A"/>
<path fill-rule="evenodd" clip-rule="evenodd" d="M14 0H0V15H14V0ZM7 1.875C7.15471 1.875 7.30308 1.94085 7.41248 2.05806C7.52187 2.17527 7.58333 2.33424 7.58333 2.5V3.125C8.06592 3.12505 8.53663 3.28537 8.93068 3.58388C9.32472 3.88239 9.62272 4.30442 9.78367 4.79187C9.83194 4.94728 9.82135 5.11677 9.75417 5.2639C9.68699 5.41102 9.5686 5.52401 9.42446 5.57856C9.28033 5.63311 9.12196 5.62485 8.98345 5.55558C8.84493 5.4863 8.73733 5.36154 8.68379 5.20813C8.60324 4.96442 8.45416 4.75345 8.25709 4.60425C8.06002 4.45505 7.82464 4.37496 7.58333 4.375V6.875C8.20217 6.875 8.79566 7.13839 9.23325 7.60723C9.67083 8.07607 9.91667 8.71196 9.91667 9.375C9.91667 10.038 9.67083 10.6739 9.23325 11.1428C8.79566 11.6116 8.20217 11.875 7.58333 11.875V12.5C7.58333 12.6658 7.52187 12.8247 7.41248 12.9419C7.30308 13.0592 7.15471 13.125 7 13.125C6.84529 13.125 6.69692 13.0592 6.58752 12.9419C6.47812 12.8247 6.41667 12.6658 6.41667 12.5V11.875C5.93408 11.8749 5.46337 11.7146 5.06932 11.4161C4.67528 11.1176 4.37728 10.6956 4.21633 10.2081C4.16806 10.0527 4.17865 9.88323 4.24583 9.7361C4.31301 9.58898 4.4314 9.47599 4.57554 9.42144C4.71967 9.36689 4.87804 9.37515 5.01655 9.44442C5.15507 9.5137 5.26267 9.63846 5.31621 9.79187C5.39676 10.0356 5.54583 10.2466 5.74291 10.3958C5.93998 10.5449 6.17536 10.625 6.41667 10.625V8.125C5.79783 8.125 5.20434 7.86161 4.76675 7.39277C4.32917 6.92393 4.08333 6.28804 4.08333 5.625C4.08333 4.96196 4.32917 4.32607 4.76675 3.85723C5.20434 3.38839 5.79783 3.125 6.41667 3.125V2.5C6.41667 2.33424 6.47812 2.17527 6.58752 2.05806C6.69692 1.94085 6.84529 1.875 7 1.875Z" fill="#5D697A"/>
</g>
</g>
<defs>
<clipPath id="clip0_600_4092">
<rect width="14" height="15" rx="2" fill="white"/>
</clipPath>
</defs>
</svg>
