<svg width="74" height="49" viewBox="0 0 74 49" fill="none" xmlns="http://www.w3.org/2000/svg">
<path d="M54.6642 28.0249C50.3875 28.0249 46.8938 26.8354 44.1831 24.4565C41.5328 22.0195 40.2076 18.6832 40.2076 14.4476C40.2076 10.212 41.6532 6.75963 44.5446 4.09059C47.4961 1.36353 51.6825 0 57.1038 0C62.525 0 66.6813 1.74068 69.5726 5.22203C72.5242 8.70338 74 13.1711 74 18.6252C74 23.8472 72.6447 28.46 69.9341 32.4636C67.2837 36.4091 63.9406 39.7454 59.9048 42.4725C55.9292 45.1995 51.9536 47.3754 47.978 49L44.6349 42.4725C47.2853 41.4861 49.9357 40.0936 52.5861 38.2949C55.2967 36.4962 57.5556 34.4944 59.3626 32.2895C61.1697 30.0847 62.0733 27.9088 62.0733 25.762C61.8323 26.0521 61.0492 26.5163 59.7241 27.1545C58.4591 27.7348 56.7725 28.0249 54.6642 28.0249ZM14.4567 28.0249C10.1799 28.0249 6.6862 26.8354 3.97558 24.4565C1.32519 22.0195 0 18.6832 0 14.4476C0 10.212 1.44567 6.75963 4.337 4.09059C7.28856 1.36353 11.475 0 16.8962 0C22.3777 0 26.5641 1.74068 29.4554 5.22203C32.407 8.70338 33.8828 13.1711 33.8828 18.6252C33.8828 23.8472 32.5275 28.46 29.8168 32.4636C27.1062 36.4091 23.733 39.7454 19.6972 42.4725C15.7216 45.1995 11.746 47.3754 7.77045 49L4.42735 42.4725C7.07774 41.4861 9.72812 40.0936 12.3785 38.2949C15.0289 36.4962 17.2576 34.4944 19.0647 32.2895C20.932 30.0847 21.8958 27.9088 21.956 25.762C21.7151 26.0521 20.932 26.5163 19.6068 27.1545C18.2816 27.7348 16.5649 28.0249 14.4567 28.0249Z" fill="white" fill-opacity="0.2"/>
</svg>
