<svg width="20" height="20" viewBox="0 0 20 20" fill="none" xmlns="http://www.w3.org/2000/svg">
<path fill-rule="evenodd" clip-rule="evenodd" d="M3.57143 0C2.62423 0 1.71582 0.376274 1.04605 1.04605C0.376274 1.71582 0 2.62423 0 3.57143V19.2857C0 19.5431 0.138423 19.7805 0.362358 19.9073C0.586293 20.0341 0.861118 20.0306 1.08178 19.8982L4.28571 17.9758L7.48965 19.8982C7.71585 20.0339 7.99844 20.0339 8.22464 19.8982L11.4286 17.9758L14.6325 19.8982C14.8532 20.0306 15.128 20.0341 15.3519 19.9073C15.5759 19.7805 15.7143 19.5431 15.7143 19.2857V8.57143H15.7213V3.57143C15.7213 3.07832 16.121 2.67857 16.6141 2.67857C17.1072 2.67857 17.507 3.07832 17.507 3.57143V8.57143H19.2857C19.6802 8.57143 20 8.25163 20 7.85714V2.85714C20 2.09938 19.699 1.37266 19.1632 0.836838C18.6273 0.301019 17.9006 0 17.1429 0H3.57143ZM12.3501 6.92245C12.6229 6.61072 12.5913 6.1369 12.2796 5.86414C11.9679 5.59138 11.494 5.62297 11.2213 5.93469L6.67929 11.1255L4.37857 9.4C4.0472 9.15147 3.5771 9.21863 3.32857 9.55C3.08004 9.88137 3.1472 10.3515 3.47857 10.6L6.33571 12.7429C6.64957 12.9782 7.0918 12.932 7.35015 12.6367L12.3501 6.92245Z" fill="#FD4C00"/>
</svg>
