<svg width="17" height="16" viewBox="0 0 17 16" fill="none" xmlns="http://www.w3.org/2000/svg">
<path d="M8.6179 0.136349C8.6666 0.0993847 8.70989 0.0557965 8.74653 0.00684906H10.9883C11.1573 -0.00228302 11.3267 -0.00228302 11.4958 0.00684906H11.529C12.0271 0.00544428 12.5192 0.115463 12.9693 0.328849C13.7914 0.651354 14.5026 1.20508 15.0168 1.9231C15.406 2.4668 15.6708 3.08949 15.7923 3.74698C15.9139 4.40448 15.8893 5.08067 15.7203 5.7276L12.8494 2.89522C12.7265 2.77404 12.5609 2.70614 12.3883 2.70622H8.21015C8.07608 2.71168 7.9469 2.75809 7.84003 2.83922L6.19153 4.08872C6.10294 4.15618 6.00193 4.20552 5.89426 4.23393C5.7866 4.26235 5.6744 4.26928 5.56406 4.25433C5.45372 4.23938 5.3474 4.20284 5.25118 4.1468C5.15497 4.09076 5.07073 4.01632 5.00328 3.92772C4.93623 3.84052 4.88712 3.7409 4.85877 3.63462C4.83043 3.52833 4.82342 3.41748 4.83814 3.30847C4.85286 3.19946 4.88903 3.09445 4.94456 2.99949C5.00009 2.90453 5.07387 2.82151 5.16165 2.75522L8.6179 0.136349ZM4.2989 9.8261L4.28665 9.83747L3.4344 10.6845L3.42303 10.695C3.27378 10.8369 3.07516 10.9152 2.86921 10.9132C2.66327 10.9112 2.46618 10.8292 2.31965 10.6845C2.24645 10.6119 2.18835 10.5256 2.14869 10.4304C2.10904 10.3353 2.08862 10.2332 2.08862 10.1302C2.08862 10.0271 2.10904 9.92504 2.14869 9.8299C2.18835 9.73476 2.24645 9.64841 2.31965 9.57585L3.1719 8.72885C3.32034 8.58185 3.52081 8.49939 3.72972 8.49939C3.93862 8.49939 4.13909 8.58185 4.28753 8.72885C4.43343 8.87345 4.51645 9.06973 4.51858 9.27514C4.52071 9.48054 4.44178 9.67851 4.2989 9.8261ZM4.04428 11.3118C3.9014 11.4594 3.82247 11.6574 3.8246 11.8628C3.82673 12.0682 3.90975 12.2645 4.05565 12.4091C4.36365 12.7153 4.86328 12.7153 5.17128 12.4091L6.02353 11.5621C6.10614 11.4802 6.1694 11.3808 6.20866 11.2713C6.24793 11.1618 6.26221 11.0449 6.25047 10.9291C6.23873 10.8134 6.20125 10.7017 6.14079 10.6023C6.08033 10.5029 5.99841 10.4183 5.90103 10.3546C5.75153 10.2562 5.57315 10.2113 5.3949 10.2272C5.21665 10.2431 5.04902 10.3188 4.91928 10.4421L4.9079 10.4543L4.05565 11.3005L4.04428 11.3118ZM2.19978 7.3516C2.27298 7.42416 2.33109 7.51051 2.37074 7.60565C2.41039 7.70079 2.43081 7.80284 2.43081 7.90591C2.43081 8.00898 2.41039 8.11104 2.37074 8.20618C2.33109 8.30132 2.27298 8.38766 2.19978 8.46022L1.34753 9.30722C1.19905 9.45449 0.998401 9.53712 0.789279 9.53712C0.580158 9.53712 0.379507 9.45449 0.231029 9.30722C0.157827 9.23466 0.0997218 9.14832 0.0600687 9.05318C0.0204157 8.95804 0 8.85598 0 8.75291C0 8.64984 0.0204157 8.54779 0.0600687 8.45265C0.0997218 8.35751 0.157827 8.27116 0.231029 8.1986L1.08415 7.3516C1.23259 7.2046 1.43306 7.12214 1.64197 7.12214C1.85087 7.12214 2.05134 7.2046 2.19978 7.3516ZM7.75865 12.179C7.83186 12.2515 7.88996 12.3379 7.92961 12.433C7.96927 12.5282 7.98968 12.6302 7.98968 12.7333C7.98968 12.8364 7.96927 12.9384 7.92961 13.0336C7.88996 13.1287 7.83186 13.215 7.75865 13.2876L6.9064 14.1346C6.75796 14.2816 6.5575 14.3641 6.34859 14.3641C6.13968 14.3641 5.93922 14.2816 5.79078 14.1346C5.67455 14.0194 5.59749 13.8705 5.57048 13.7091C5.54347 13.5477 5.56789 13.3819 5.64028 13.2351L5.64115 13.2333C5.67932 13.1565 5.72987 13.0864 5.79078 13.026L6.64303 12.179C6.79147 12.032 6.99193 11.9495 7.20084 11.9495C7.40975 11.9495 7.61021 12.032 7.75865 12.179ZM2.06328 1.59672C2.64426 1.01952 3.34878 0.581844 4.12365 0.316734C4.89851 0.0516233 5.72348 -0.0339926 6.53628 0.0663491L4.36978 1.70872C4.14411 1.87945 3.95445 2.09313 3.81171 2.33746C3.66897 2.5818 3.57597 2.85195 3.53808 3.13237C3.50018 3.41279 3.51812 3.69794 3.59088 3.9714C3.66364 4.24486 3.78978 4.50122 3.96203 4.72572C4.3098 5.17903 4.82274 5.4764 5.38893 5.55295C5.95512 5.62951 6.52861 5.47903 6.98428 5.13435L8.45778 4.01872H12.1197L15.1883 7.04622C15.1981 7.05845 15.2087 7.07013 15.2198 7.08122L16.226 8.08747C16.4524 8.31698 16.5821 8.62457 16.5884 8.94686C16.5948 9.26914 16.4773 9.58159 16.2601 9.81983C16.043 10.0581 15.7427 10.2039 15.4212 10.2274C15.0997 10.2509 14.7815 10.1502 14.532 9.94597L14.448 9.86197C14.4318 9.84544 14.4142 9.83023 14.3955 9.81647L13.4392 8.86097C13.3988 8.81919 13.3505 8.78586 13.2971 8.76293C13.2438 8.74 13.1864 8.72793 13.1283 8.72743C13.0702 8.72692 13.0126 8.73799 12.9588 8.75999C12.905 8.78199 12.8562 8.81447 12.8151 8.85555C12.774 8.89663 12.7415 8.94548 12.7195 8.99924C12.6975 9.05301 12.6865 9.11062 12.687 9.16871C12.6875 9.2268 12.6996 9.28421 12.7225 9.33759C12.7454 9.39097 12.7787 9.43924 12.8205 9.4796L13.8268 10.4858C13.8635 10.5217 13.9003 10.5567 13.9388 10.59L13.9773 10.6285C14.0615 10.7109 14.1286 10.8093 14.1746 10.9178C14.2206 11.0264 14.2446 11.143 14.2452 11.2609C14.2459 11.3788 14.2231 11.4956 14.1783 11.6047C14.1335 11.7137 14.0675 11.8128 13.9841 11.8962C13.9007 11.9795 13.8017 12.0456 13.6926 12.0904C13.5836 12.1352 13.4667 12.158 13.3488 12.1573C13.2309 12.1567 13.1143 12.1327 13.0058 12.0867C12.8972 12.0407 12.7989 11.9736 12.7164 11.8894L12.5677 11.7415C12.5059 11.6799 12.4273 11.6382 12.3417 11.6217C12.2561 11.6052 12.1676 11.6146 12.0874 11.6487C12.0072 11.6828 11.939 11.7401 11.8916 11.8132C11.8442 11.8863 11.8197 11.972 11.8213 12.0591C11.8199 12.1183 11.8306 12.1771 11.8527 12.232C11.8748 12.2869 11.9079 12.3368 11.9499 12.3785L12.145 12.5736C12.2254 12.6493 12.2898 12.7404 12.3344 12.8415C12.3789 12.9425 12.4028 13.0515 12.4044 13.1619C12.4061 13.2724 12.3856 13.382 12.3441 13.4844C12.3026 13.5867 12.2409 13.6797 12.1628 13.7578C12.0847 13.8359 11.9918 13.8975 11.8894 13.939C11.7871 13.9805 11.6774 14.001 11.567 13.9994C11.4565 13.9977 11.3476 13.9739 11.2465 13.9293C11.1455 13.8848 11.0544 13.8204 10.9787 13.74H10.9778L10.9673 13.7286L10.7835 13.5449C10.7431 13.5039 10.6949 13.4714 10.6418 13.4493C10.5887 13.4271 10.5318 13.4157 10.4742 13.4157C10.4167 13.4157 10.3597 13.4271 10.3066 13.4493C10.2535 13.4714 10.2053 13.5039 10.1649 13.5449C10.0829 13.6269 10.0368 13.7382 10.0368 13.8542C10.0368 13.9702 10.0829 14.0814 10.1649 14.1635L10.3557 14.3551C10.4342 14.4327 10.4967 14.5249 10.5396 14.6266C10.5824 14.7284 10.6049 14.8375 10.6056 14.9479C10.6062 15.0583 10.5852 15.1677 10.5436 15.27C10.502 15.3722 10.4407 15.4652 10.3631 15.5438C10.2855 15.6223 10.1933 15.6848 10.0915 15.7277C9.98983 15.7706 9.88067 15.793 9.77029 15.7937C9.65991 15.7944 9.55047 15.7733 9.44823 15.7317C9.34599 15.6901 9.25294 15.6288 9.1744 15.5512L7.92228 14.3612L8.38165 13.9045C8.53639 13.7512 8.65922 13.5688 8.74305 13.3678C8.82688 13.1667 8.87004 12.9511 8.87004 12.7333C8.87004 12.5155 8.82688 12.2998 8.74305 12.0988C8.65922 11.8978 8.53639 11.7154 8.38165 11.5621C8.21795 11.3995 8.02231 11.2727 7.8071 11.1895C7.59188 11.1064 7.36176 11.0688 7.13128 11.0791C7.14143 10.8495 7.10338 10.6203 7.01959 10.4063C6.9358 10.1923 6.80812 9.99826 6.64478 9.8366C6.48121 9.67409 6.28572 9.54726 6.07066 9.46413C5.85559 9.381 5.62562 9.34336 5.39528 9.3536C5.40536 9.12415 5.36728 8.89512 5.28349 8.68128C5.1997 8.46743 5.07205 8.2735 4.90878 8.11197C4.70079 7.90571 4.44231 7.75764 4.15917 7.68256C3.87603 7.60747 3.57815 7.608 3.29528 7.6841C3.24666 7.32405 3.08021 6.99022 2.8219 6.73472C2.53405 6.4494 2.15248 6.27815 1.74798 6.25273C1.34347 6.22731 0.943471 6.34944 0.622154 6.59647C0.415501 5.70939 0.439449 4.78416 0.691718 3.90896C0.943987 3.03375 1.41617 2.23772 2.06328 1.59672Z" fill="#5D697A"/>
</svg>
