<svg width="20" height="20" viewBox="0 0 20 20" fill="none" xmlns="http://www.w3.org/2000/svg">
<path d="M18.25 18.25L12.75 12.75M1.75 8.16667C1.75 9.00932 1.91597 9.84371 2.23844 10.6222C2.56091 11.4007 3.03356 12.1081 3.6294 12.7039C4.22524 13.2998 4.93261 13.7724 5.71111 14.0949C6.48962 14.4174 7.32402 14.5833 8.16667 14.5833C9.00932 14.5833 9.84371 14.4174 10.6222 14.0949C11.4007 13.7724 12.1081 13.2998 12.7039 12.7039C13.2998 12.1081 13.7724 11.4007 14.0949 10.6222C14.4174 9.84371 14.5833 9.00932 14.5833 8.16667C14.5833 7.32402 14.4174 6.48962 14.0949 5.71111C13.7724 4.93261 13.2998 4.22524 12.7039 3.6294C12.1081 3.03356 11.4007 2.56091 10.6222 2.23844C9.84371 1.91597 9.00932 1.75 8.16667 1.75C7.32402 1.75 6.48962 1.91597 5.71111 2.23844C4.93261 2.56091 4.22524 3.03356 3.6294 3.6294C3.03356 4.22524 2.56091 4.93261 2.23844 5.71111C1.91597 6.48962 1.75 7.32402 1.75 8.16667Z" stroke="#606A80" stroke-width="2" stroke-linecap="round" stroke-linejoin="round"/>
</svg>
