<svg width="21" height="21" viewBox="0 0 21 21" fill="none" xmlns="http://www.w3.org/2000/svg">
<path d="M0.968381 0.109863C1.14613 0.183786 1.42572 0.281684 1.68934 0.413547C7.74662 3.43441 13.8019 6.45526 19.8512 9.48811C20.3045 9.71587 20.9157 9.85972 20.8757 10.555C20.8398 11.1823 20.2626 11.2842 19.8332 11.5C13.8998 14.4789 7.96231 17.4478 2.02486 20.4207C1.93499 20.4647 1.85111 20.5186 1.76124 20.5606C1.31588 20.7584 0.864531 21.124 0.385221 20.6925C-0.0920918 20.2629 0.185509 19.7814 0.373238 19.3199C1.43371 16.7046 2.47022 14.0813 3.56864 11.482C3.86421 10.7828 3.85023 10.1934 3.56065 9.50209C2.45424 6.87083 1.39577 4.21959 0.329301 1.57034C-0.0201952 0.707242 0.193497 0.149822 0.968381 0.109863Z" fill="#007AFF"/>
<path d="M2.38574 2.49341C7.80194 5.20259 12.9925 7.79789 18.3787 10.4911C13.0244 13.1683 7.82791 15.7656 2.61341 18.3729C2.44366 18.0592 2.64936 17.8514 2.73724 17.6317C3.49015 15.7516 4.27302 13.8836 4.99998 11.9915C5.21367 11.4381 5.50126 11.2363 6.0944 11.2483C7.92377 11.2843 9.75513 11.2743 11.5845 11.2543C12.1736 11.2483 13.0304 11.4861 13.0384 10.5231C13.0484 9.49613 12.1517 9.73987 11.5326 9.73188C9.70321 9.70791 7.87184 9.70191 6.04248 9.73588C5.48528 9.74587 5.21567 9.54807 5.01596 9.0386C4.19713 6.93679 3.33837 4.85096 2.38574 2.49341Z" fill="white"/>
</svg>
