<svg width="15" height="14" viewBox="0 0 15 14" fill="none" xmlns="http://www.w3.org/2000/svg">
<path d="M1.16743 2.58516L13.8757 0.3303C14.0041 0.307435 14.1364 0.322174 14.2571 0.372814C14.3779 0.423453 14.4822 0.507924 14.5581 0.616455C14.634 0.724987 14.6783 0.853144 14.686 0.986106C14.6936 1.11907 14.6642 1.2514 14.6012 1.3678L8.37411 12.8911C8.31032 13.0094 8.21457 13.1062 8.09824 13.1703C7.98191 13.2344 7.84991 13.2629 7.71793 13.2525C7.58595 13.2421 7.45956 13.1932 7.3538 13.1116C7.24803 13.0301 7.16734 12.9193 7.12133 12.7924L5.58335 8.54922C5.56449 8.49722 5.56101 8.44076 5.57336 8.38686C5.5857 8.33296 5.61332 8.28402 5.65277 8.24613L9.79456 4.26998C9.81178 4.25324 9.82446 4.23222 9.83136 4.20896C9.83826 4.1857 9.83915 4.16099 9.83394 4.13724L9.82209 4.10284C9.80768 4.07459 9.78436 4.05211 9.7559 4.03905C9.72745 4.026 9.69554 4.02314 9.66536 4.03093L9.63582 4.04201L4.60646 6.73917C4.55852 6.76475 4.50423 6.77535 4.45035 6.76965C4.39646 6.76395 4.34535 6.74222 4.30338 6.70714L0.851418 3.82609C0.74868 3.74046 0.672116 3.62656 0.630844 3.49795C0.589573 3.36935 0.585335 3.23145 0.618634 3.10069C0.651934 2.96992 0.721367 2.85181 0.818665 2.76041C0.915962 2.66901 1.03702 2.60818 1.16743 2.58516Z" fill="#5D697A"/>
</svg>
