<svg width="12" height="14" viewBox="0 0 12 14" fill="none" xmlns="http://www.w3.org/2000/svg">
<path fill-rule="evenodd" clip-rule="evenodd" d="M4.20379 1.99773C4.77381 1.83651 5.37602 1.75 5.99967 1.75C6.62333 1.75 7.22554 1.83651 7.79555 1.99773C8.19413 2.11046 8.60863 1.87874 8.72136 1.48016C8.8341 1.08159 8.60237 0.667087 8.20379 0.554354C7.50226 0.355934 6.76272 0.25 5.99967 0.25C5.23663 0.25 4.49709 0.355934 3.79555 0.554354C3.39698 0.667087 3.16525 1.08159 3.27799 1.48016C3.39072 1.87874 3.80522 2.11046 4.20379 1.99773ZM11.6663 8.0002C11.6663 11.1298 9.12929 13.6669 5.99967 13.6669C2.87006 13.6669 0.333008 11.1298 0.333008 8.0002C0.333008 4.87059 2.87006 2.33353 5.99967 2.33353C9.12929 2.33353 11.6663 4.87059 11.6663 8.0002ZM6.49977 5C6.49977 4.72386 6.27592 4.5 5.99977 4.5C5.72363 4.5 5.49977 4.72386 5.49977 5V7.46732C5.20087 7.64022 4.99977 7.96339 4.99977 8.33353C4.99977 8.88582 5.44749 9.33353 5.99977 9.33353C6.55206 9.33353 6.99977 8.88582 6.99977 8.33353C6.99977 7.96339 6.79868 7.64022 6.49977 7.46732V5Z" fill="#5D697A"/>
</svg>
