<svg width="17" height="17" viewBox="0 0 17 17" fill="none" xmlns="http://www.w3.org/2000/svg">
<path d="M1.48042 16.0783C1.05875 16.0783 0.70675 15.9372 0.424417 15.6548C0.141472 15.3719 0 15.0196 0 14.5979V6.55875C0 6.13708 0.141472 5.78508 0.424417 5.50275C0.70675 5.21981 1.05875 5.07833 1.48042 5.07833H15.0196C15.4413 5.07833 15.7933 5.21981 16.0756 5.50275C16.3585 5.78508 16.5 6.13708 16.5 6.55875V14.5979C16.5 15.0196 16.3588 15.3716 16.0765 15.6539C15.7936 15.9369 15.4413 16.0783 15.0196 16.0783H1.48042ZM6.875 13.3989L11.1054 10.5783L6.875 7.75775V13.3989ZM1.375 3.45583V2.53917H15.125V3.45583H1.375ZM4.125 0.916667V0H12.375V0.916667H4.125Z" fill="#5D697A"/>
</svg>
