<svg width="19" height="15" viewBox="0 0 19 15" fill="none" xmlns="http://www.w3.org/2000/svg">
<path fill-rule="evenodd" clip-rule="evenodd" d="M11.0085 13.7527L11.014 11.9167C11.014 11.6729 11.1108 11.4392 11.2831 11.2669C11.4555 11.0945 11.6892 10.9977 11.9329 10.9977C12.1766 10.9977 12.4104 11.0945 12.5827 11.2669C12.7551 11.4392 12.8519 11.6729 12.8519 11.9167V13.7289C12.8519 14.1698 12.8519 14.3907 12.993 14.5264C13.1351 14.6612 13.3505 14.652 13.7841 14.6337C15.4919 14.5613 16.5415 14.3312 17.2803 13.5923C18.0228 12.8535 18.2529 11.8039 18.3253 10.0934C18.339 9.75425 18.3464 9.58375 18.2831 9.471C18.219 9.35825 17.9669 9.21708 17.4609 8.93383C17.1759 8.77493 16.9384 8.5428 16.7732 8.26143C16.6079 7.98006 16.5207 7.65966 16.5207 7.33333C16.5207 7.00701 16.6079 6.68661 16.7732 6.40523C16.9384 6.12386 17.1759 5.89173 17.4609 5.73283C17.9669 5.4505 18.2199 5.30842 18.2831 5.19567C18.3464 5.08292 18.339 4.91333 18.3244 4.57325C18.2529 2.86275 18.0219 1.81408 17.2803 1.07433C16.4764 0.271333 15.3049 0.06875 13.3185 0.0174167C13.2576 0.0158252 13.1971 0.0264332 13.1405 0.0486148C13.0838 0.0707964 13.0322 0.104102 12.9886 0.146566C12.945 0.189031 12.9104 0.239793 12.8867 0.295859C12.8631 0.351924 12.8509 0.412156 12.851 0.473V2.75C12.851 2.99372 12.7541 3.22746 12.5818 3.3998C12.4095 3.57214 12.1757 3.66896 11.932 3.66896C11.6883 3.66896 11.4545 3.57214 11.2822 3.3998C11.1099 3.22746 11.013 2.99372 11.013 2.75L11.0066 0.457417C11.0064 0.336018 10.958 0.219674 10.8721 0.133918C10.7861 0.0481625 10.6697 -2.42797e-07 10.5483 0H7.32896C3.86396 0 2.13146 -1.09275e-07 1.05438 1.07433C0.311878 1.81317 0.0817948 2.86275 0.00937811 4.57325C-0.00437189 4.91242 -0.0117052 5.08292 0.0515448 5.19567C0.115711 5.30842 0.367795 5.4505 0.873795 5.73283C1.15882 5.89173 1.39624 6.12386 1.56152 6.40523C1.7268 6.68661 1.81394 7.00701 1.81394 7.33333C1.81394 7.65966 1.7268 7.98006 1.56152 8.26143C1.39624 8.5428 1.15882 8.77493 0.873795 8.93383C0.367795 9.21708 0.114795 9.35825 0.0515448 9.471C-0.0117052 9.58375 -0.00437196 9.75333 0.0102947 10.0925C0.0817947 11.8039 0.312795 12.8535 1.05438 13.5923C2.13146 14.6667 3.86396 14.6667 7.32988 14.6667H10.089C10.5217 14.6667 10.7371 14.6667 10.8719 14.5328C11.0066 14.399 11.0075 14.1845 11.0085 13.7527ZM12.851 8.25V6.41667C12.851 6.17294 12.7541 5.9392 12.5818 5.76686C12.4095 5.59453 12.1757 5.49771 11.932 5.49771C11.6883 5.49771 11.4545 5.59453 11.2822 5.76686C11.1099 5.9392 11.013 6.17294 11.013 6.41667V8.25C11.013 8.49384 11.1099 8.7277 11.2823 8.90013C11.4548 9.07255 11.6886 9.16942 11.9325 9.16942C12.1763 9.16942 12.4102 9.07255 12.5826 8.90013C12.755 8.7277 12.851 8.49384 12.851 8.25Z" fill="#5D697A"/>
</svg>
