<svg width="20" height="20" viewBox="0 0 20 20" fill="none" xmlns="http://www.w3.org/2000/svg">
<path fill-rule="evenodd" clip-rule="evenodd" d="M11.4286 6.42866C11.4286 8.79559 9.50979 10.7144 7.14286 10.7144C4.77592 10.7144 2.85714 8.79559 2.85714 6.42866C2.85714 4.06172 4.77592 2.14294 7.14286 2.14294C9.50979 2.14294 11.4286 4.06172 11.4286 6.42866ZM7.14286 12.1429C3.19797 12.1429 0 15.3409 0 19.2858C0 19.6802 0.319797 20 0.714286 20H13.5714C13.9659 20 14.2857 19.6802 14.2857 19.2858C14.2857 15.3409 11.0877 12.1429 7.14286 12.1429ZM19.2858 20H15.968C16.0354 19.7737 16.0715 19.534 16.0715 19.2858C16.0715 16.3699 14.6738 13.7806 12.5119 12.1511C12.6263 12.1457 12.7415 12.1429 12.8573 12.1429C16.8021 12.1429 20.0001 15.3409 20.0001 19.2858C20.0001 19.6802 19.6803 20 19.2858 20ZM12.8573 10.7144C12.4262 10.7144 12.01 10.6507 11.6176 10.5324C12.6092 9.45173 13.2144 8.01087 13.2144 6.42866C13.2144 4.84644 12.6092 3.40558 11.6176 2.32496C12.01 2.20658 12.4262 2.14294 12.8573 2.14294C15.2242 2.14294 17.143 4.06172 17.143 6.42866C17.143 8.79559 15.2242 10.7144 12.8573 10.7144Z" fill="#007AFF"/>
</svg>
