<svg width="23" height="19" viewBox="0 0 23 19" fill="none" xmlns="http://www.w3.org/2000/svg">
<g clip-path="url(#clip0_12_2417)">
<path d="M3.38437 8.3125C4.62884 8.3125 5.64062 7.24746 5.64062 5.9375C5.64062 4.62754 4.62884 3.5625 3.38437 3.5625C2.13991 3.5625 1.12812 4.62754 1.12812 5.9375C1.12812 7.24746 2.13991 8.3125 3.38437 8.3125ZM19.1781 8.3125C20.4226 8.3125 21.4344 7.24746 21.4344 5.9375C21.4344 4.62754 20.4226 3.5625 19.1781 3.5625C17.9337 3.5625 16.9219 4.62754 16.9219 5.9375C16.9219 7.24746 17.9337 8.3125 19.1781 8.3125ZM20.3062 9.5H18.05C17.4295 9.5 16.869 9.76348 16.46 10.1902C17.8808 11.0104 18.889 12.491 19.1076 14.25H21.4344C22.0584 14.25 22.5625 13.7193 22.5625 13.0625V11.875C22.5625 10.565 21.5507 9.5 20.3062 9.5ZM11.2812 9.5C13.4635 9.5 15.2297 7.64082 15.2297 5.34375C15.2297 3.04668 13.4635 1.1875 11.2812 1.1875C9.09903 1.1875 7.33281 3.04668 7.33281 5.34375C7.33281 7.64082 9.09903 9.5 11.2812 9.5ZM13.9887 10.6875H13.6961C12.9629 11.0586 12.1485 11.2812 11.2812 11.2812C10.414 11.2812 9.60316 11.0586 8.86636 10.6875H8.57375C6.3316 10.6875 4.5125 12.6023 4.5125 14.9625V16.0312C4.5125 17.0146 5.27046 17.8125 6.20469 17.8125H16.3578C17.292 17.8125 18.05 17.0146 18.05 16.0312V14.9625C18.05 12.6023 16.2309 10.6875 13.9887 10.6875ZM6.10245 10.1902C5.69351 9.76348 5.13297 9.5 4.5125 9.5H2.25625C1.01179 9.5 0 10.565 0 11.875V13.0625C0 13.7193 0.504131 14.25 1.12812 14.25H3.45136C3.67346 12.491 4.68172 11.0104 6.10245 10.1902Z" fill="#FDB600"/>
</g>
<defs>
<clipPath id="clip0_12_2417">
<rect width="22.5625" height="19" fill="white"/>
</clipPath>
</defs>
</svg>
